<?xml version="1.0" encoding="UTF-8" standalone="no"?>
<!-- Created with Inkscape (http://www.inkscape.org/) -->

<svg
   xmlns:dc="http://purl.org/dc/elements/1.1/"
   xmlns:cc="http://creativecommons.org/ns#"
   xmlns:rdf="http://www.w3.org/1999/02/22-rdf-syntax-ns#"
   xmlns:svg="http://www.w3.org/2000/svg"
   xmlns="http://www.w3.org/2000/svg"
   xmlns:sodipodi="http://sodipodi.sourceforge.net/DTD/sodipodi-0.dtd"
   xmlns:inkscape="http://www.inkscape.org/namespaces/inkscape"
   width="160.11256mm"
   height="303.26871mm"
   viewBox="0 0 567.32791 1074.5741"
   id="svg2"
   version="1.1"
   inkscape:version="0.92.2 (5c3e80d, 2017-08-06)"
   sodipodi:docname="template1.svg">
  <defs
     id="defs4" />
  <sodipodi:namedview
     id="base"
     pagecolor="#000000"
     bordercolor="#666666"
     borderopacity="1.0"
     inkscape:pageopacity="1"
     inkscape:pageshadow="2"
     inkscape:zoom="0.85839844"
     inkscape:cx="101.36742"
     inkscape:cy="295.40407"
     inkscape:document-units="mm"
     inkscape:current-layer="layer1"
     showgrid="false"
     units="mm"
     inkscape:window-width="1280"
     inkscape:window-height="942"
     inkscape:window-x="0"
     inkscape:window-y="25"
     inkscape:window-maximized="1"
     fit-margin-top="20"
     fit-margin-left="20"
     fit-margin-right="20"
     fit-margin-bottom="20"
     inkscape:pagecheckerboard="false" />
  <metadata
     id="metadata7">
    <rdf:RDF>
      <cc:Work
         rdf:about="">
        <dc:format>image/svg+xml</dc:format>
        <dc:type
           rdf:resource="http://purl.org/dc/dcmitype/StillImage" />
        <dc:title />
      </cc:Work>
    </rdf:RDF>
  </metadata>
  <g
     inkscape:label="Ebene 1"
     inkscape:groupmode="layer"
     id="layer1"
     transform="translate(70.373408,-48.146816)">
    <path
       inkscape:connector-curvature="0"
       style="display:inline;opacity:1;fill:#808080;fill-opacity:1;stroke:none;stroke-width:1px;stroke-linecap:butt;stroke-linejoin:miter;stroke-opacity:1"
       d="m 77.495438,119.01451 c -6.645084,3.99378 -12.345393,8.22128 -17.032471,12.95105 -0.649706,0.6556 -1.273565,1.32574 -1.88415,2.00134 -0.190087,0.21035 -0.385021,0.4175 -0.571293,0.62988 0,0 0,0.002 0,0.002 -2.354184,2.68427 -4.405125,5.53223 -6.13769,8.58765 -0.577613,1.01857 -1.119113,2.06118 -1.625982,3.12744 -1.013709,2.13259 -1.885293,4.36263 -2.611078,6.70532 -0.54435,1.75699 -1.006987,3.576 -1.386112,5.46387 -0.505678,2.51771 -0.863316,5.15543 -1.069331,7.92847 -0.876066,-2.74098 -2.061741,-5.62789 -3.51929,-8.55653 -0.291263,-0.58524 -0.593766,-1.17185 -0.906375,-1.75964 0,0 0,-0.002 0,-0.002 -0.312872,-0.58826 -0.636825,-1.17599 -0.970453,-1.76513 -2.669138,-4.71316 -5.992172,-9.42949 -9.808959,-13.72193 -0.954169,-1.07311 -1.940138,-2.11925 -2.953491,-3.13293 -2.533481,-2.53422 -5.242836,-4.86141 -8.091434,-6.87928 -1.139407,-0.80715 -2.301608,-1.5655 -3.482666,-2.26684 -1.18061,-0.70106 -2.380809,-1.346 -3.598022,-1.9281 0,0 -0.0019,0 -0.0019,0 -0.608857,-0.29115 -1.221303,-0.56692 -1.838379,-0.82581 -1.2341311,-0.51779 -2.4849191,-0.9688 -3.7481691,-1.34765 -0.631064,-0.18926 -1.265074,-0.3606 -1.902465,-0.5127 0,0 -0.0019,0 -0.0019,0 -0.637384,-0.15207 -1.277689,-0.28591 -1.920776,-0.39917 0,0 -0.0019,0 -0.0019,0 -0.643082,-0.11323 -1.290929,-0.20738 -1.93908601,-0.28015 9.16887501,12.14759 16.32441711,23.28211 21.91589211,33.77746 0.559142,1.04954 1.103149,2.09214 1.631468,3.12927 6.340312,12.44609 10.492378,24.0254 13.236693,35.38513 0.228675,0.94661 0.447797,1.89054 0.657347,2.83447 0.628865,2.83237 1.173178,5.65424 1.646118,8.47596 0.157613,0.94038 0.308354,1.87912 0.450441,2.81982 0.284306,1.88198 0.537778,3.76475 0.765384,5.65247 0.227513,1.88713 0.428025,3.7774 0.606075,5.67626 1.068563,11.3937 1.311628,23.0511 1.506956,35.62134 0.09761,6.2848 0.182344,12.7984 0.3534,19.61975 0.114057,4.54756 0.266503,9.23127 0.485232,14.07715 0.32805,7.26883 0.806962,14.90134 1.532587,22.97607 0.483759,5.38315 1.076606,10.9621 1.809084,16.76331 1.707413,13.52283 15.623952,66.22599 27.489617,113.59312 0,0 0,0.002 0,0.002 3.955068,15.78841 7.683581,30.98391 10.654912,43.93798 0,0 0,0.002 0,0.002 3.714075,16.19233 6.247537,28.88274 6.567993,34.85046 0.02138,0.3972 0.0315,0.7656 0.03291,1.1023 0,0 -1.759171,-2.57784 -4.82849,-6.48927 0,0 0,-0.002 0,-0.002 -2.302237,-2.93384 -5.342156,-6.61669 -8.930053,-10.5249 0,0 0,-0.002 0,-0.002 -10.764918,-11.7258 -26.466729,-25.47223 -42.000728,-27.05199 9.38e-4,7.2e-4 0.0028,9.4e-4 0.0038,0.002 -9.37e-4,-1.2e-4 -0.0028,1.2e-4 -0.0038,0 0.463153,0.3222 0.932653,0.68294 1.408088,1.08215 0.95085,0.79843 1.925353,1.74586 2.918699,2.82715 0,0 0,0.002 0,0.002 0.496379,0.54036 0.999788,1.11284 1.505119,1.71754 0,0 0,0.002 0,0.002 4.044853,4.84041 8.359471,11.67388 12.659915,19.42749 0.376706,0.67918 0.749794,1.40033 1.126097,2.0929 8.216174,15.12151 16.295126,33.22676 22.252807,46.8695 0.678891,1.5546 1.210097,2.77741 1.83106,4.2041 0.803671,1.84652 1.675846,3.85059 2.371209,5.44007 0,0 0.0019,0.002 0.0019,0.002 1.865803,4.26521 3.52034,9.14352 4.973137,14.39392 0,0 0,0.002 0,0.002 1.74345,6.30108 3.19634,13.13825 4.374393,20.09582 0.02756,0.16258 0.05147,0.32619 0.07875,0.4889 0.55545,3.31916 1.052457,6.66218 1.484991,9.98657 0,0 0,0.002 0,0.002 2.72196,20.92161 3.043082,41.05442 1.398932,49.17113 -0.213666,-0.4466 -0.450595,-0.90115 -0.706795,-1.36047 -0.770437,-1.38124 -1.728187,-2.81708 -2.843624,-4.29016 0,0 0,-0.002 0,-0.002 -0.743888,-0.98234 -1.558238,-1.97974 -2.433478,-2.99011 -0.875241,-1.01039 -1.812572,-2.03334 -2.801513,-3.06153 -9.889274,-10.28181 -25.022182,-21.19858 -36.571647,-27.63245 -2.309906,-1.28679 -4.476215,-2.39402 -6.42884,-3.28125 0.840459,1.47296 1.751222,3.02684 2.719125,4.65821 6.29144,10.60402 15.03418,24.46076 23.115223,40.35278 1.243172,2.44483 2.470847,4.93764 3.671268,7.47437 0.600216,1.26835 1.194506,2.54822 1.779788,3.83789 1.755806,3.869 3.437662,7.82988 5.007937,11.87072 1.047084,2.6944 2.042897,5.42328 2.979122,8.18298 0.936028,2.75918 1.812234,5.54867 2.614743,8.36426 2.808816,9.85452 4.72935,20.0266 5.277103,30.32776 0.156497,2.94318 0.385266,5.85398 0.675656,8.7323 0.2904,2.87831 0.642188,5.72507 1.049194,8.54187 0.814012,5.63355 1.844493,11.14707 3.021247,16.55456 1.17675,5.40752 2.500744,10.70916 3.901978,15.91736 2.802432,10.41631 5.914702,20.4604 8.785392,30.23986 1.43536,4.88977 2.81077,9.71298 4.05579,14.48364 0.62251,2.38532 1.21249,4.75675 1.76148,7.11731 0,0 0,0.002 0,0.002 0.27435,1.17969 0.53826,2.35614 0.79101,3.53028 0.50578,2.34943 0.96694,4.69058 1.37329,7.02026 0.40619,2.32908 0.75784,4.64898 1.04736,6.96167 0,0 0,0.002 0,0.002 0.14472,1.15604 0.27404,2.30996 0.38636,3.46253 0,0 0,0.002 0,0.002 0.16845,1.7293 0.23581,3.67271 0.21789,5.8081 0,0 0,0.002 0,0.002 -0.006,0.71148 -0.0216,1.44389 -0.0458,2.19726 0,0 0,0.002 0,0.002 -0.0485,1.5075 -0.13118,3.09688 -0.24536,4.76257 0,0 0,0.002 0,0.002 -0.11419,1.6658 -0.26021,3.40903 -0.4303,5.22034 -0.32235,3.43315 -0.74177,7.13322 -1.21398,11.02294 -0.0262,0.2155 -0.0467,0.41495 -0.0732,0.63172 0,0 0,0.002 0,0.002 -1.76811,14.45421 -4.30597,31.69538 -5.93261,49.54101 0,0 0,0.002 0,0.002 -1.16184,12.74681 -1.85819,25.80189 -1.47766,38.36975 0,0 0,0.002 0,0.002 0.0761,2.51307 0.19537,5.00662 0.36255,7.47437 0,0 0,0.002 0,0.002 0.0835,1.23355 0.1793,2.46057 0.28747,3.68042 0,0 0,0.002 0,0.002 0.32465,3.66073 0.76302,7.25612 1.33118,10.76481 0,0 0,0 0,0 0.94705,5.84803 2.2548,11.4548 4.00085,16.7213 0.0912,0.2751 0.19384,0.5415 0.28748,0.8147 0.62326,1.8193 1.28995,3.6043 2.02331,5.3357 0,0 0,0 0,0 0.42156,0.9952 0.86242,1.9749 1.32202,2.9388 0.15454,0.3242 0.32446,0.6353 0.4834,0.9559 0.78695,1.5868 1.61413,3.1395 2.51221,4.6325 0,0 0.002,0 0.002,0 2.15853,3.5882 4.64588,6.8953 7.50183,9.8695 0,0 0,0 0,0 0.71385,0.7433 1.45143,1.4651 2.21191,2.1662 0.041,0.037 0.0834,0.074 0.12451,0.1116 0.34062,0.3119 0.68445,0.6215 1.03455,0.9247 0,0 0.002,0 0.002,0 0.78427,0.6792 1.5916,1.3375 2.42432,1.972 0,0 0.002,0 0.002,0 1.2493,0.9519 2.55298,1.8541 3.91479,2.7009 0,0 0.002,0 0.002,0 0.16992,0.1056 0.34465,0.2072 0.51636,0.3112 0.5815,0.3521 1.17391,0.6929 1.77612,1.0254 0.16992,0.094 0.33563,0.1916 0.5072,0.2838 0,0 0.002,0 0.002,0 0.4794,0.2577 0.96502,0.511 1.45751,0.7563 0,0 0.002,0 0.002,0 0.15914,0.079 0.32288,0.1546 0.4834,0.2325 0.8332,0.4045 1.68356,0.796 2.55432,1.1646 1.5584,0.6594 3.17772,1.2598 4.85962,1.7999 0,0 0.002,0 0.002,0 0.0315,0.01 0.074,0.021 0.1062,0.031 0.31106,0.097 0.65298,0.1937 1.02906,0.2893 0.0277,0.01 0.0599,0.013 0.0878,0.021 0.38875,0.097 0.81964,0.1953 1.26891,0.2911 0.0806,0.017 0.18132,0.033 0.26368,0.05 0.93783,0.1951 1.98435,0.3882 3.12561,0.5786 4.96643,1.3871 10.36728,2.4036 16.07849,3.3124 2.10112,0.3359 4.23692,0.6617 6.41967,0.9832 9.4e-4,2e-4 0.003,-2e-4 0.004,0 v -19.085 c 0.66014,0.1033 1.31343,0.1836 1.95922,0.249 0.16075,0.017 0.32023,0.032 0.47974,0.046 0.65636,0.056 1.30555,0.1 1.93543,0.1098 0.003,10e-5 0.007,0 0.009,0 l 59.17601,0.9283 c 0.58688,0.01 1.17114,0 1.75233,-0.01 0.14518,0 0.28916,-0.01 0.43396,-0.015 0.46744,-0.014 0.93367,-0.032 1.39709,-0.058 0.0985,-0.01 0.19654,-0.014 0.2948,-0.021 0.5197,-0.034 1.03665,-0.075 1.55091,-0.1245 0.0519,-0.01 0.10376,-0.011 0.15564,-0.017 0.57564,-0.058 1.14735,-0.1257 1.71569,-0.2032 v 18.1971 c 9.4e-4,-2e-4 0.003,10e-5 0.004,0 2.19062,-0.3226 4.33507,-0.6497 6.44348,-0.987 5.70625,-0.9083 11.10327,-1.9241 16.06568,-3.3105 1.13906,-0.1901 2.182,-0.3821 3.11828,-0.5768 0.0823,-0.017 0.1831,-0.033 0.26367,-0.05 0.47663,-0.1016 0.93572,-0.2041 1.34399,-0.3076 0.005,0 0.008,0 0.0129,0 0.41558,-0.1056 0.80131,-0.2107 1.13708,-0.3186 0.5609,-0.1801 1.11376,-0.3685 1.66077,-0.5621 0.54701,-0.1936 1.08721,-0.3937 1.62048,-0.6006 1.59983,-0.6206 3.13897,-1.2996 4.61793,-2.0361 0.49298,-0.2455 0.97948,-0.4983 1.45935,-0.7563 0.95926,-0.5157 1.89193,-1.0561 2.79967,-1.6204 2.27041,-1.4118 4.38312,-2.974 6.34461,-4.6729 4.31528,-3.7376 7.90622,-8.1407 10.87463,-13.0755 1.07916,-1.7941 2.0761,-3.6581 2.99561,-5.5866 0,0 0,0 0,0 0.45962,-0.9639 0.90046,-1.9436 1.32202,-2.9388 0,0 0,0 0,0 0.84331,-1.9908 1.61243,-4.0425 2.31079,-6.1486 0,0 0,0 0,0 0.34925,-1.0534 0.68125,-2.1191 0.99609,-3.199 1.57418,-5.39915 2.72645,-11.11874 3.53211,-17.05987 0.3222,-2.3759 0.58923,-4.78874 0.80567,-7.22902 0,0 0,-0.002 0,-0.002 0.10818,-1.21984 0.20388,-2.44686 0.28747,-3.68041 0,0 0,-0.002 0,-0.002 0.16721,-2.46774 0.28641,-4.9613 0.36255,-7.47437 0,0 0,-0.002 0,-0.002 0.0381,-1.25685 0.0652,-2.51717 0.0824,-3.78296 0.0342,-2.53159 0.0275,-5.0795 -0.0146,-7.63733 -0.0422,-2.55785 -0.12014,-5.12639 -0.22888,-7.69775 -0.16313,-3.85704 -0.39574,-7.72244 -0.68115,-11.5741 -0.0157,-0.21246 -0.037,-0.423 -0.0531,-0.63538 -0.37218,-4.92049 -0.82381,-9.82054 -1.33118,-14.64844 -1.58784,-15.10997 -3.6683,-29.5474 -5.18371,-41.93664 0,0 0,-0.002 0,-0.002 -0.75763,-6.1941 -1.37489,-11.87642 -1.71753,-16.875 0,0 0,-0.002 0,-0.002 -0.11416,-1.6657 -0.1987,-3.25508 -0.24719,-4.76258 0,0 0,-0.002 0,-0.002 -0.0969,-3.01526 -0.0525,-5.70126 0.17211,-8.0072 0,0 0,-0.002 0,-0.002 0.11233,-1.15256 0.24164,-2.30648 0.38636,-3.46252 0,0 0,-0.002 0,-0.002 0.28952,-2.31269 0.643,-4.63259 1.04919,-6.96166 0,0 0,-0.002 0,-0.002 0.40622,-2.3291 0.86586,-4.66776 1.37146,-7.0166 0,0 0,-0.002 0,-0.002 0.25276,-1.17413 0.51849,-2.35058 0.79284,-3.53028 0,0 0,-0.002 0,-0.002 1.09786,-4.72056 2.35977,-9.4871 3.71705,-14.31336 0,0 0,-0.002 0,-0.002 7.46603,-26.54762 17.81036,-54.89669 19.53185,-87.27172 2.34751,-44.14778 29.92846,-85.94036 44.44703,-110.41077 0.9679,-1.63136 1.87682,-3.18525 2.71728,-4.6582 -1.95262,0.88723 -4.11893,1.99446 -6.42884,3.28125 -9.23956,5.14709 -20.77187,13.16407 -30.07873,21.42883 -1.16302,1.03282 -2.29361,2.07 -3.3783,3.10547 -0.54214,0.51757 -1.07374,1.03642 -1.593,1.55273 -0.51959,0.51664 -1.02715,1.03132 -1.52161,1.54542 -1.4834,1.54227 -2.84729,3.07021 -4.06495,4.56664 -0.0872,0.1071 -0.16522,0.21184 -0.25085,0.31861 -0.31319,0.39056 -0.62524,0.78063 -0.91736,1.16638 0,0 0,0.002 0,0.002 -0.74352,0.98192 -1.41768,1.94757 -2.01233,2.89124 -0.4931,0.78252 -0.91858,1.54635 -1.29821,2.29613 -0.0782,0.15438 -0.16862,0.31226 -0.24171,0.4651 -0.36538,-1.80313 -0.63369,-4.19952 -0.80017,-7.06604 0,0 0,-0.002 0,-0.002 -0.41612,-7.16802 -0.19545,-17.27529 0.73609,-28.396 0,0 0,-0.002 0,-0.002 1.49062,-17.79368 4.80192,-38.18167 10.23743,-53.2782 0,0 0,-0.002 0,-0.002 0.12812,-0.35585 0.26317,-0.69383 0.39367,-1.0437 0.21529,-0.57718 0.4301,-1.16288 0.65185,-1.72302 0.35621,-0.89973 0.72014,-1.77673 1.09315,-2.62939 0,0 0,-0.002 0,-0.002 0.53708,-1.22766 1.2285,-2.81799 1.83105,-4.20228 0.78018,-1.79232 1.49436,-3.42978 2.37304,-5.44188 6.23033,-14.26708 14.77765,-33.45246 23.37891,-48.96057 0,0 0,-0.002 0,-0.002 4.30045,-7.75361 8.61506,-14.58707 12.65991,-19.42748 0,0 0,-0.002 0,-0.002 0.50534,-0.60469 1.00692,-1.17718 1.50329,-1.71753 0,0 0,-0.002 0,-0.002 0.99335,-1.08128 1.96785,-2.02872 2.91871,-2.82714 0.47543,-0.39922 0.94494,-0.75996 1.40808,-1.08216 -9.4e-4,1.2e-4 -0.003,-1.2e-4 -0.004,0 9.4e-4,-7.3e-4 0.003,-9.3e-4 0.004,-0.002 -2.589,0.26329 -5.1817,0.86596 -7.75635,1.73949 -1.12141,0.38049 -2.23857,0.82901 -3.35083,1.30738 -1.15465,0.49663 -2.30188,1.04309 -3.44238,1.6333 -0.28268,0.14628 -0.56979,0.27873 -0.85144,0.4303 -0.83721,0.45058 -1.67068,0.92505 -2.49756,1.41906 -1.16222,0.69437 -2.30839,1.44147 -3.44604,2.21009 -5.7462,3.88235 -11.14307,8.61462 -15.88807,13.35022 -0.67421,0.67288 -1.3344,1.34408 -1.9812,2.01415 -0.31506,0.32641 -0.63841,0.65292 -0.94665,0.97779 0,0 0,0.002 0,0.002 -0.62732,0.66114 -1.24062,1.31727 -1.83838,1.96838 0,0 0,0.002 0,0.002 -3.58789,3.90821 -6.6278,7.59106 -8.93005,10.5249 0,0 -0.002,0.002 -0.002,0.002 -1.53413,1.95507 -2.74189,3.57801 -3.56506,4.7113 0,0 0,0.002 0,0.002 -0.8224,1.13228 -1.26343,1.77613 -1.26343,1.77613 0.002,-0.3367 0.0134,-0.7051 0.0348,-1.1023 0.32044,-5.96772 2.85391,-18.65813 6.56799,-34.85046 0,0 0,-0.002 0,-0.002 2.97132,-12.95407 6.69984,-28.14957 10.6549,-43.93798 0,0 0,-0.002 0,-0.002 7.91045,-31.57808 16.73184,-65.52668 22.23999,-88.65782 1.37705,-5.78281 2.54739,-10.88913 3.44421,-15.11353 0.59788,-2.81626 1.07436,-5.24154 1.40991,-7.21253 0.16778,-0.98549 0.30065,-1.85798 0.39552,-2.60924 0.36623,-2.9006 0.69746,-5.74512 0.99792,-8.53821 0.90135,-8.37929 1.52211,-16.28788 1.96105,-23.80737 0.29265,-5.01301 0.50368,-9.85333 0.66285,-14.54407 0.55704,-16.41755 0.47318,-31.0089 0.98327,-44.79858 0.36441,-9.84981 1.03273,-19.28933 2.45362,-28.69629 0.56834,-3.76276 1.25651,-7.52189 2.09473,-11.29761 0.20955,-0.94393 0.42867,-1.88786 0.65734,-2.83447 0.22867,-0.9466 0.46725,-1.89542 0.71594,-2.84545 0.4974,-1.90008 1.03579,-3.80744 1.61865,-5.72571 0.87429,-2.87741 1.84832,-5.7788 2.93519,-8.714 1.81145,-4.89201 3.93501,-9.87812 6.427,-15.00548 0.49839,-1.02547 1.0116,-2.05736 1.53992,-3.09449 0.52832,-1.03713 1.07233,-2.07973 1.63146,-3.12927 1.11829,-2.09907 2.29978,-4.22438 3.54676,-6.37756 2.49395,-4.30639 5.25189,-8.72553 8.30383,-13.2843 2.28896,-3.41907 4.74248,-6.91649 7.37365,-10.5011 0.87707,-1.19487 1.77477,-2.39974 2.69166,-3.6145 0,0 -0.002,0 -0.002,0 -2.16001,0.24238 -4.29119,0.7268 -6.38672,1.39709 -0.42143,0.13483 -0.84517,0.26684 -1.26342,0.41748 -2.49862,0.89995 -4.93834,2.07632 -7.30042,3.47901 -0.59053,0.35067 -1.17555,0.71519 -1.75598,1.09314 0,0 -0.002,0.002 -0.002,0.002 -0.18551,0.12081 -0.36671,0.25188 -0.55115,0.37536 -9.04842,6.05766 -16.79449,15.29272 -22.02575,24.53065 -0.33363,0.58914 -0.65758,1.17687 -0.97046,1.76513 0,0 0,0.002 0,0.002 -0.3126,0.58778 -0.61512,1.1744 -0.90638,1.75964 -1.45779,2.92913 -2.64491,5.8151 -3.52112,8.55652 -0.10298,-1.38619 -0.24286,-2.73867 -0.42113,-4.05944 -0.35657,-2.64155 -0.86333,-5.15573 -1.51612,-7.55493 -0.48958,-1.79944 -1.06094,-3.53354 -1.71387,-5.20936 -0.43529,-1.11718 -0.9067,-2.20765 -1.41357,-3.27392 -2.02723,-4.26477 -4.62466,-8.13595 -7.76367,-11.71509 0,0 0,-0.002 0,-0.002 -5.1011,-5.81604 -11.63633,-10.86227 -19.48974,-15.58227 0,0 -0.002,0 -0.002,0 11.28046,22.21569 18.45323,43.86875 21.29333,66.01318 0.28128,2.19355 0.52362,4.39307 0.7196,6.59729 0.31236,3.51257 0.51549,7.04073 0.60974,10.58716 0.062,2.33219 0.077,4.67228 0.044,7.02209 0,0 0,0.002 0,0.002 -0.0167,1.18413 -0.0452,2.37054 -0.0861,3.55958 0,0 0,0.002 0,0.002 -0.20447,5.94769 -0.7137,11.95882 -1.52893,18.05237 -0.32612,2.43767 -0.66547,4.74928 -1.01806,6.9452 0,0 0,0.002 0,0.002 -0.70511,4.39106 -1.45895,8.31909 -2.23939,11.86524 0,0 0,0.002 0,0.002 -1.17069,5.31917 -2.40356,9.77926 -3.62915,13.65417 0,0 0,0.002 0,0.002 -4.08481,12.91435 -8.09453,19.32986 -9.47937,29.39575 -0.34497,-1.60173 -0.71111,-3.18803 -1.09497,-4.75708 0,0 0,-0.002 0,-0.002 -0.38432,-1.57089 -0.7884,-3.12484 -1.20849,-4.66187 0,0 0,-0.002 0,-0.002 -0.42026,-1.53759 -0.85637,-3.05676 -1.3092,-4.55934 -0.45284,-1.50257 -0.92222,-2.98849 -1.40442,-4.45495 -0.48221,-1.46645 -0.97846,-2.91406 -1.48682,-4.34326 -1.01673,-2.85842 -2.08214,-5.64141 -3.1842,-8.34411 -1.10206,-2.70269 -2.24042,-5.32454 -3.40211,-7.86255 -0.58084,-1.26902 -1.16686,-2.51651 -1.75781,-3.74268 -1.18161,-2.4518 -2.38068,-4.81792 -3.58337,-7.09167 0,0 0,-0.002 0,-0.002 -1.20294,-2.27419 -2.41069,-4.45709 -3.60901,-6.54419 -1.7975,-3.13068 -3.57511,-6.04593 -5.28991,-8.73047 -5.14432,-8.05351 -9.72255,-14.03136 -12.56104,-17.52502 -1.89235,-2.32914 -3.01208,-3.55408 -3.01208,-3.55408 0,0 0.36657,1.20005 0.9906,3.3545 1.87204,6.46338 6.06947,21.5193 9.68994,38.54735 1.50857,7.09499 2.91683,14.53234 4.0155,21.8335 0.46239,3.07294 0.8642,6.11872 1.20117,9.10766 0.30345,2.69172 0.55482,5.33978 0.73242,7.90833 0.37483,5.42131 0.44483,10.51061 0.10071,15.02198 -0.0861,1.12783 -0.19756,2.21844 -0.33691,3.27026 0,0 0,0.002 0,0.002 -0.0697,0.52527 -0.14717,1.04053 -0.23072,1.54541 0,0 0,0.002 0,0.002 -0.25087,1.51571 -0.56634,2.93706 -0.95032,4.25171 -0.24911,0.8529 -0.47114,1.74565 -0.67199,2.67151 -0.0766,0.3531 -0.13502,0.7352 -0.20507,1.09863 -0.11709,0.60738 -0.23895,1.20822 -0.33875,1.84387 -0.0613,0.39037 -0.10783,0.80585 -0.16297,1.20667 -0.0881,0.64064 -0.17927,1.27598 -0.25268,1.94274 -0.0458,0.4156 -0.0804,0.85439 -0.12085,1.27992 -0.0641,0.67548 -0.12974,1.34715 -0.18128,2.04711 -0.0353,0.47921 -0.0618,0.97991 -0.0915,1.47034 -0.0414,0.6806 -0.0836,1.35823 -0.11536,2.05994 -0.0226,0.49996 -0.0386,1.0185 -0.0567,1.52892 -0.026,0.73075 -0.0519,1.46024 -0.0696,2.21192 -0.0118,0.5033 -0.019,1.02197 -0.0275,1.53442 -0.0132,0.79951 -0.025,1.60125 -0.0311,2.42249 -0.004,0.45165 -0.004,0.91524 -0.006,1.37329 -0.003,0.82884 -0.005,1.67023 -0.002,2.51953 0.004,1.1194 0.0188,2.31447 0.0293,3.46802 0.0322,3.54728 0.0766,7.22479 0.12268,11.06506 0.009,0.74474 0.0197,1.47181 0.0275,2.22656 0.0189,1.85033 0.0198,3.77661 0.0256,5.6836 0.005,1.61727 0.0135,3.22312 0.004,4.87792 -0.006,0.97376 -0.0132,1.94742 -0.0257,2.93335 -0.005,0.35292 -0.009,0.7076 -0.0146,1.06201 -0.019,1.25487 -0.0448,2.51916 -0.0769,3.79212 -0.0111,0.44009 -0.0238,0.88353 -0.0367,1.32569 -0.0359,1.23897 -0.0774,2.48459 -0.12817,3.73901 -0.0188,0.46638 -0.043,0.93601 -0.0641,1.40442 -0.0563,1.25077 -0.11883,2.50564 -0.19227,3.77014 -0.0261,0.44996 -0.0558,0.90337 -0.0843,1.35497 -0.0806,1.27852 -0.16676,2.56161 -0.26733,3.85255 -0.037,0.47617 -0.0809,0.95596 -0.12085,1.43371 -0.10841,1.29506 -0.22239,2.59238 -0.35339,3.89832 -0.0441,0.4398 -0.096,0.8829 -0.14282,1.32385 -0.14212,1.33848 -0.28937,2.68004 -0.45777,4.02832 -0.0528,0.42296 -0.11661,0.84874 -0.17212,1.27258 -0.18193,1.38825 -0.36975,2.7779 -0.58227,4.17481 -0.0503,0.33109 -0.10899,0.66455 -0.16114,0.99609 -0.23273,1.47908 -0.47517,2.9607 -0.74523,4.44763 -0.0487,0.26812 -0.10753,0.53733 -0.15747,0.80567 -2.4705,13.26928 -6.48289,26.80846 -12.98584,40.07629 -9.4e-4,0.003 -0.003,0.005 -0.004,0.007 -0.88135,1.79795 -1.80851,3.58938 -2.7832,5.37598 -0.007,0.0115 -0.012,0.0233 -0.0183,0.0348 -0.4818,0.88256 -0.97772,1.76292 -1.48315,2.64221 0.45348,-4.81063 0.80396,-9.71087 1.68823,-15.07325 0.015,-0.0906 0.0306,-0.18017 0.0457,-0.27099 0.12702,-0.75652 0.26833,-1.52585 0.41931,-2.30164 0.0431,-0.22154 0.0865,-0.44327 0.13184,-0.66649 0.13857,-0.6834 0.29194,-1.37827 0.45227,-2.07825 0.075,-0.32709 0.1524,-0.65602 0.23254,-0.98695 0.15804,-0.65318 0.32765,-1.3141 0.5072,-1.98302 0.0962,-0.3582 0.19747,-0.72105 0.3003,-1.08399 0.18588,-0.65659 0.38076,-1.31933 0.5896,-1.99219 0.13579,-0.43721 0.28236,-0.88127 0.42846,-1.32568 0.20333,-0.61888 0.41095,-1.24156 0.63538,-1.875 0.17426,-0.49155 0.36531,-0.99344 0.55298,-1.49414 0.23534,-0.62822 0.47123,-1.25743 0.72876,-1.90064 0.21629,-0.53993 0.45394,-1.09336 0.68665,-1.64428 0.26177,-0.62006 0.51846,-1.23868 0.802,-1.87317 0.27832,-0.62254 0.58599,-1.26367 0.88623,-1.90063 0.28202,-0.59855 0.55474,-1.19004 0.85693,-1.80176 0.33603,-0.68001 0.70735,-1.38321 1.06934,-2.08008 0.31254,-0.60185 0.60848,-1.19427 0.94116,-1.80909 0.43311,-0.80027 0.91204,-1.62875 1.38061,-2.45178 0.30757,-0.54029 0.59212,-1.06644 0.91553,-1.61682 0.81451,-1.38601 1.67478,-2.80263 2.59461,-4.25537 -0.12418,0.11891 -0.24082,0.22813 -0.36438,0.34607 -1.18653,1.13245 -2.34065,2.21578 -3.47352,3.2666 -0.38362,0.35606 -0.76485,0.70702 -1.14257,1.05469 -0.73098,0.67231 -1.43972,1.31559 -2.14966,1.95923 -0.86471,0.78467 -1.70816,1.54449 -2.54334,2.29248 -4.11367,3.67987 -7.92022,7.00879 -11.46789,10.26672 -0.0176,-0.19522 -0.0386,-0.38262 -0.0568,-0.57678 -0.0829,-0.88649 -0.16808,-1.76666 -0.26184,-2.63122 -0.0652,-0.60054 -0.13658,-1.18779 -0.20691,-1.77796 -0.0685,-0.57526 -0.13898,-1.14827 -0.2124,-1.71386 -0.0826,-0.63619 -0.16765,-1.2673 -0.25635,-1.89148 -0.0723,-0.5089 -0.14891,-1.00956 -0.22522,-1.51063 -0.0876,-0.57566 -0.17258,-1.1575 -0.26551,-1.72302 -0.16098,-0.97993 -0.33076,-1.94277 -0.50719,-2.89307 -0.0968,-0.52115 -0.19895,-1.0311 -0.30029,-1.54357 -0.10626,-0.53742 -0.21289,-1.07227 -0.32411,-1.60034 -0.10827,-0.51401 -0.2185,-1.02543 -0.33141,-1.53077 -0.11845,-0.53019 -0.24273,-1.05202 -0.36622,-1.57287 -0.10948,-0.46168 -0.21619,-0.92978 -0.32959,-1.38428 -0.21611,-0.86642 -0.44009,-1.71869 -0.67016,-2.55981 -0.14009,-0.512 -0.28696,-1.0132 -0.43213,-1.51612 -0.11907,-0.41263 -0.23827,-0.8238 -0.36072,-1.23047 -0.15943,-0.52933 -0.32016,-1.05523 -0.48522,-1.57471 -0.11853,-0.37312 -0.24117,-0.73962 -0.36255,-1.10778 -0.22324,-0.67681 -0.45023,-1.34813 -0.68299,-2.00867 -0.21118,-0.59949 -0.42383,-1.19685 -0.6427,-1.78345 -0.1558,-0.41741 -0.31645,-0.8267 -0.47608,-1.23779 -0.15185,-0.39121 -0.30432,-0.78075 -0.45959,-1.16638 -0.18031,-0.44767 -0.36081,-0.89446 -0.54565,-1.33484 -0.16685,-0.39762 -0.33856,-0.78917 -0.50903,-1.18103 -0.29607,-0.68028 -0.59774,-1.35237 -0.90455,-2.01599 -0.18961,-0.41029 -0.37765,-0.8226 -0.57129,-1.22681 -0.17531,-0.36583 -0.35429,-0.72663 -0.53283,-1.08765 -0.174,-0.35191 -0.35033,-0.69987 -0.52735,-1.04735 -1.17731,-2.31029 -2.42112,-4.52598 -3.72436,-6.66505 -0.12425,-0.20399 -0.25005,-0.40709 -0.37537,-0.60974 -1.30967,-2.11711 -2.67635,-4.16398 -4.09607,-6.15783 -0.15856,-0.22273 -0.31806,-0.44503 -0.4779,-0.66651 -1.3503,-1.8707 -2.74701,-3.69846 -4.18213,-5.50048 -0.98887,-1.2418 -1.99298,-2.47895 -3.01758,-3.70239 0.10608,0.71891 0.18882,1.42216 0.28016,2.13135 0.0736,0.57162 0.15901,1.15205 0.22338,1.71752 0.0319,0.2796 0.0509,0.55134 0.0805,0.82947 0.10208,0.95828 0.20129,1.91527 0.27832,2.85645 0.0439,0.53591 0.0718,1.0588 0.10803,1.58935 0.0476,0.69903 0.10249,1.40293 0.13733,2.09289 0.0212,0.41873 0.0273,0.82782 0.044,1.24329 0.0312,0.7788 0.0663,1.55955 0.0824,2.32728 0.009,0.42337 0.005,0.8378 0.009,1.25792 0.008,0.74357 0.0214,1.48925 0.0165,2.22291 -0.003,0.40045 -0.0157,0.79258 -0.0219,1.19018 -0.0122,0.76682 -0.0227,1.53593 -0.0476,2.29248 -0.008,0.22834 -0.0207,0.4519 -0.0293,0.67932 -0.034,0.90132 -0.0708,1.80042 -0.12085,2.68799 -0.0108,0.19258 -0.0269,0.38117 -0.0384,0.57312 -0.0565,0.93871 -0.11667,1.87346 -0.1886,2.79785 -7.2e-4,0.009 -9.4e-4,0.0183 -0.002,0.0275 -2.00496,25.71122 -9.5064,46.08175 1.26892,71.58508 0.002,0.005 0.004,0.008 0.006,0.0128 -0.58273,1.05789 -1.16984,2.15363 -1.75965,3.27942 -0.0669,0.12774 -0.13433,0.25772 -0.20142,0.38636 -0.51972,0.99756 -1.04283,2.02411 -1.56921,3.078 -0.10456,0.20907 -0.20826,0.41668 -0.31311,0.62805 -0.49328,0.99573 -0.99222,2.0189 -1.49231,3.06702 -0.1292,0.27049 -0.25666,0.53335 -0.38635,0.80748 -0.60767,1.28568 -1.21913,2.60037 -1.83838,3.96791 -1.39917,-26.74113 -7.79602,-42.17364 -14.52026,-53.98866 -2.98841,-5.25116 -6.0417,-9.78675 -8.74878,-14.28404 -1.69198,-2.8108 -3.24864,-5.60609 -4.57031,-8.55103 -0.26433,-0.58899 -0.51884,-1.18485 -0.76355,-1.78711 -1.4e-4,9.3e-4 1.4e-4,0.003 0,0.004 -5.2e-4,-9.4e-4 -9.4e-4,-0.003 -0.002,-0.004 -0.3627,3.1371 -0.53824,6.40173 -0.53833,9.7522 0,0.0104 -10e-6,0.0207 0,0.0311 5.1e-4,1.68165 0.0451,3.38421 0.13366,5.10498 0.0443,0.86007 0.099,1.72476 0.1648,2.59278 0.19746,2.60348 0.49222,5.24231 0.87891,7.8955 0.12886,0.88401 0.26815,1.76977 0.41748,2.65687 0.74717,4.43908 1.74743,8.90826 2.98645,13.33373 0.052,0.18588 0.0903,0.37105 0.13916,0.55664 0.13123,0.49866 0.26072,0.99746 0.36987,1.49414 0.0569,0.259 0.10084,0.51607 0.15198,0.77454 0.0822,0.41495 0.1662,0.82961 0.23437,1.24329 0.059,0.35886 0.10482,0.71688 0.15382,1.07482 0.0414,0.30154 0.0862,0.60362 0.12084,0.90454 0.0479,0.41762 0.0851,0.83413 0.12085,1.25062 0.0204,0.2363 0.0419,0.47265 0.0586,0.70862 0.0329,0.46881 0.0577,0.93689 0.0769,1.40442 0.007,0.16964 0.0148,0.33954 0.0202,0.50902 0.016,0.51593 0.0242,1.03088 0.0257,1.54542 3.8e-4,0.11236 0.002,0.22461 0.002,0.33691 -0.002,0.57135 -0.0106,1.14217 -0.0275,1.71204 -7.7e-4,0.0263 -9.4e-4,0.0525 -0.002,0.0788 -0.0191,0.62155 -0.0463,1.24215 -0.0805,1.86218 -0.009,0.007 -0.0199,0.0161 -0.0292,0.0238 -2.61401,2.12535 -5.57475,4.86634 -8.61329,8.03466 -0.19917,0.20754 -0.39728,0.41148 -0.59691,0.62257 -0.45145,0.47766 -0.90262,0.96451 -1.35499,1.45935 -0.24968,0.27294 -0.49757,0.54794 -0.74706,0.8258 -0.40599,0.4524 -0.80963,0.90682 -1.21399,1.37146 -0.34721,0.39871 -0.69133,0.80508 -1.03638,1.21216 -0.32331,0.38165 -0.64614,0.7596 -0.9668,1.14807 -0.45137,0.54653 -0.89597,1.10372 -1.34033,1.66259 -0.22956,0.28886 -0.46304,0.57057 -0.69031,0.86244 -0.64051,0.82213 -1.26974,1.65624 -1.88782,2.49938 -0.26834,0.36619 -0.52592,0.73824 -0.78918,1.10779 -0.38247,0.53672 -0.76302,1.07389 -1.13342,1.61682 -0.24625,0.36102 -0.48295,0.72429 -0.72327,1.08765 -0.37,0.55928 -0.73491,1.11883 -1.08948,1.68274 -0.22766,0.36212 -0.44944,0.72404 -0.67016,1.08765 -0.3505,0.57731 -0.68835,1.15571 -1.0199,1.73584 -0.20525,0.35913 -0.4105,0.71685 -0.60791,1.07666 -0.33511,0.61074 -0.65039,1.22126 -0.96131,1.83288 -0.17732,0.34883 -0.36575,0.69681 -0.53466,1.04553 -0.0636,0.1312 -0.12262,0.26251 -0.18494,0.39368 -0.36263,0.76316 -0.71228,1.52503 -1.03089,2.28515 -0.60976,1.45475 -1.16927,2.73408 -1.74133,4.06128 -0.57199,-1.32709 -1.12984,-2.60676 -1.7395,-4.06128 -0.31963,-0.76258 -0.66878,-1.52684 -1.03271,-2.29247 -0.0611,-0.1287 -0.11893,-0.25763 -0.18128,-0.38636 -0.16891,-0.34872 -0.35734,-0.6967 -0.53466,-1.04553 -0.30932,-0.60846 -0.62253,-1.21613 -0.95581,-1.82373 -0.20475,-0.37331 -0.41855,-0.74435 -0.63172,-1.11695 -0.32361,-0.56556 -0.65448,-1.129 -0.99609,-1.69189 -0.22318,-0.36781 -0.44721,-0.73418 -0.6775,-1.10046 -0.36398,-0.57883 -0.73855,-1.15274 -1.11877,-1.72669 -0.22142,-0.33435 -0.43823,-0.66921 -0.66467,-1.00159 -0.42307,-0.6208 -0.85763,-1.23491 -1.29638,-1.84753 -0.20962,-0.2928 -0.41344,-0.58823 -0.62623,-0.8789 -0.61725,-0.84278 -1.24623,-1.67753 -1.88598,-2.4994 -0.30892,-0.39707 -0.62443,-0.78223 -0.9375,-1.1737 -0.35952,-0.44929 -0.71817,-0.89914 -1.08216,-1.34034 -0.35953,-0.43606 -0.72112,-0.86158 -1.08398,-1.28906 -0.31608,-0.37213 -0.63245,-0.74268 -0.95032,-1.10779 -0.40825,-0.46925 -0.81506,-0.92931 -1.22497,-1.3861 -0.24953,-0.27786 -0.49737,-0.55286 -0.74707,-0.8258 -0.45725,-0.50017 -0.91334,-0.99139 -1.36963,-1.47401 -0.17439,-0.18431 -0.34599,-0.36404 -0.52002,-0.54565 -3.07045,-3.20635 -6.06671,-5.97633 -8.70484,-8.1189 -9.4e-4,-0.025 -0.004,-0.05 -0.006,-0.0751 -0.0279,-0.51277 -0.0483,-1.02613 -0.0659,-1.53992 -0.006,-0.15923 -0.0122,-0.31857 -0.0165,-0.47791 -0.0132,-0.4822 -0.0197,-0.9651 -0.0219,-1.44836 -8.1e-4,-0.18734 8.5e-4,-0.37463 0.002,-0.56214 0.002,-0.44268 0.009,-0.88564 0.0219,-1.32935 0.007,-0.26147 0.0193,-0.52365 0.0311,-0.78552 0.0172,-0.38657 0.0375,-0.77343 0.0641,-1.16088 0.0212,-0.30667 0.0494,-0.61378 0.0769,-0.92102 0.0314,-0.35318 0.0623,-0.70619 0.10254,-1.06018 0.0432,-0.37885 0.0981,-0.7591 0.15198,-1.13892 0.0402,-0.28431 0.0761,-0.56838 0.12268,-0.85327 0.0742,-0.4527 0.16535,-0.90625 0.25634,-1.36047 0.0462,-0.2309 0.0829,-0.46084 0.13367,-0.69214 0.14993,-0.6824 0.31876,-1.36646 0.51086,-2.05262 0.74331,-2.65492 1.39964,-5.32547 1.96839,-7.99621 0.37917,-1.78051 0.71921,-3.56213 1.01807,-5.33752 0.14932,-0.8871 0.28861,-1.77286 0.41748,-2.65687 0,0 0,-0.002 0,-0.002 0.38682,-2.6538 0.6814,-5.28961 0.8789,-7.89368 0.19751,-2.60408 0.29765,-5.17618 0.29846,-7.69775 9.4e-4,-3.36209 -0.17444,-6.63588 -0.53833,-9.78333 -5.1e-4,9.4e-4 -9.4e-4,0.003 -0.002,0.004 -1.4e-4,-9.4e-4 1.4e-4,-0.003 0,-0.004 -7.34145,18.06797 -23.86949,29.56721 -27.95654,70.10559 -0.27247,2.70256 -0.4909,5.53401 -0.64637,8.50525 -0.60992,-1.34696 -1.21222,-2.64363 -1.81091,-3.91114 -0.1792,-0.37914 -0.35639,-0.74107 -0.53466,-1.11328 -0.42393,-0.88587 -0.84624,-1.75926 -1.26526,-2.60742 -0.18065,-0.36524 -0.36036,-0.72371 -0.54016,-1.08216 -0.45729,-0.91263 -0.91187,-1.80509 -1.36414,-2.67516 -0.11563,-0.22224 -0.23257,-0.4451 -0.3479,-0.66468 -0.56737,-1.08111 -1.13104,-2.13479 -1.69189,-3.15307 11.18587,-26.4539 2.70733,-47.3856 1.08398,-74.47631 -0.0104,-0.1748 -0.0232,-0.34655 -0.033,-0.52185 -0.0509,-0.90148 -0.0901,-1.81446 -0.12451,-2.7301 -0.008,-0.21401 -0.0204,-0.42424 -0.0275,-0.63904 -0.0249,-0.75956 -0.0354,-1.53174 -0.0476,-2.30164 -0.007,-0.39621 -0.0194,-0.78749 -0.0219,-1.18653 -0.005,-0.7107 0.008,-1.43332 0.0146,-2.15331 0.005,-0.44321 -2.7e-4,-0.88068 0.009,-1.32752 0.0165,-0.78644 0.0519,-1.58596 0.0842,-2.38404 0.0161,-0.39608 0.0237,-0.78565 0.044,-1.18469 0.034,-0.67487 0.0874,-1.36357 0.13366,-2.04711 0.037,-0.5457 0.0647,-1.08376 0.10987,-1.63513 0.033,-0.40301 0.0816,-0.81704 0.11901,-1.22315 0.1908,-2.06506 0.42625,-4.16208 0.74341,-6.31164 -1.02522,1.22417 -2.02627,2.45985 -3.01574,3.70239 -1.44794,1.81811 -2.85905,3.66174 -4.22059,5.54993 -0.14237,0.19749 -0.28343,0.3966 -0.4248,0.59508 -0.70359,0.98769 -1.39898,1.98402 -2.07642,2.99927 -0.008,0.0133 -0.0168,0.027 -0.0256,0.0403 -0.69409,1.04117 -1.37132,2.10299 -2.03614,3.17872 -0.1088,0.17611 -0.21608,0.35387 -0.32409,0.531 -1.31466,2.15559 -2.5688,4.38861 -3.75549,6.71814 -0.18055,0.3545 -0.35911,0.71022 -0.5365,1.06933 -0.16657,0.33712 -0.3343,0.67309 -0.49804,1.01441 -0.2529,0.52728 -0.50103,1.06264 -0.74708,1.60035 -0.22975,0.50196 -0.45566,1.01015 -0.67932,1.5216 -0.20347,0.46539 -0.40593,0.93271 -0.60425,1.40625 -0.15891,0.37938 -0.31502,0.76329 -0.47057,1.14807 -0.17611,0.4357 -0.35012,0.87553 -0.52185,1.31836 -0.16491,0.42513 -0.32991,0.84984 -0.49073,1.28174 -0.15853,0.42586 -0.31242,0.8601 -0.46692,1.29273 -0.26336,0.73728 -0.51947,1.48537 -0.77087,2.24303 -0.15618,0.4708 -0.31362,0.94196 -0.46509,1.4209 -0.14204,0.44903 -0.27964,0.9041 -0.41748,1.36048 -0.13605,0.45055 -0.2691,0.90625 -0.401,1.36413 -0.13696,0.47532 -0.27591,0.94848 -0.40833,1.43188 -0.15061,0.54991 -0.29478,1.11112 -0.43945,1.67176 -0.19887,0.77054 -0.39119,1.55227 -0.57862,2.34375 -0.12368,0.52242 -0.24575,1.04657 -0.36437,1.57837 -0.10379,0.46528 -0.20593,0.93545 -0.30579,1.40808 -0.1264,0.59831 -0.24801,1.20424 -0.36804,1.81457 -0.0891,0.4529 -0.17998,0.90265 -0.2655,1.3623 -0.17981,0.96655 -0.35255,1.94713 -0.51636,2.94434 -0.0829,0.50469 -0.1593,1.0235 -0.23804,1.53626 -0.0953,0.62088 -0.18916,1.24389 -0.27831,1.87683 -0.0726,0.51488 -0.14219,1.03521 -0.21058,1.55822 -0.0885,0.67707 -0.17299,1.3635 -0.25452,2.05445 -0.06,0.50835 -0.12148,1.01291 -0.17761,1.52893 -0.11687,1.07428 -0.22779,2.16201 -0.32776,3.27026 -3.54611,-3.2567 -7.34904,-6.58528 -11.46057,-10.26306 -0.8372,-0.7498 -1.68376,-1.51132 -2.55065,-2.29797 -0.72542,-0.65766 -1.44988,-1.31372 -2.19727,-2.00134 -0.3413,-0.31424 -0.68478,-0.63107 -1.03088,-0.95215 -1.16327,-1.07847 -2.35063,-2.19354 -3.57057,-3.35816 -0.11401,-0.10886 -0.22236,-0.20892 -0.33691,-0.3186 0,0 0,0.002 0,0.002 0,0 0.002,0.002 0.002,0.002 0.15537,0.24538 0.28719,0.47619 0.43946,0.71961 0.75168,1.20169 1.48544,2.39123 2.16431,3.54676 0.28692,0.48843 0.53673,0.95507 0.81115,1.43554 0.50607,0.88592 1.01807,1.77526 1.48316,2.63489 0.33515,0.61963 0.63376,1.21728 0.94848,1.82373 0.349,0.67233 0.70974,1.35021 1.03455,2.00684 0.33273,0.67283 0.63278,1.32427 0.94116,1.9812 0.27349,0.58238 0.55419,1.17104 0.80932,1.74133 0.29306,0.65534 0.55962,1.29364 0.82948,1.93359 0.22495,0.53322 0.4551,1.0701 0.66467,1.59302 0.27068,0.67576 0.52099,1.33661 0.76721,1.99585 0.1674,0.44793 0.33774,0.89791 0.49439,1.3385 0.24801,0.69801 0.47884,1.38323 0.70129,2.0636 0.1279,0.39095 0.25545,0.78285 0.37536,1.16821 0.21439,0.6894 0.41579,1.36746 0.60609,2.0398 0.0988,0.34887 0.19659,0.69739 0.2893,1.04187 0.19441,0.72291 0.3763,1.43776 0.54565,2.14233 0.0587,0.24393 0.11625,0.48693 0.17213,0.72876 0.17881,0.77464 0.34767,1.54178 0.49987,2.29615 0.0341,0.16907 0.066,0.33725 0.0989,0.50537 0.15406,0.78769 0.29917,1.56676 0.42847,2.33459 0.0208,0.12324 0.0402,0.24528 0.0604,0.36804 0.87702,5.33672 1.22593,10.2169 1.67725,15.00732 -0.006,-0.01 -0.0109,-0.0196 -0.0165,-0.0292 -9.10418,-15.85209 -14.31847,-32.25946 -17.28333,-48.27026 -0.0381,-0.2055 -0.0835,-0.41169 -0.12085,-0.61706 -0.27557,-1.51668 -0.5213,-3.02704 -0.75805,-4.53552 -0.0481,-0.3066 -0.10359,-0.61481 -0.15015,-0.92102 -0.20959,-1.37773 -0.39329,-2.74875 -0.57312,-4.11804 -0.0592,-0.45133 -0.12696,-0.90466 -0.18311,-1.35498 -0.1616,-1.29522 -0.30212,-2.58284 -0.43945,-3.86903 -0.0535,-0.50148 -0.11296,-1.00513 -0.16296,-1.50513 -0.13179,-1.31671 -0.24637,-2.62562 -0.35523,-3.93127 -0.0366,-0.4392 -0.0757,-0.8805 -0.10986,-1.31836 -0.10189,-1.30566 -0.19138,-2.60352 -0.27282,-3.89648 -0.0278,-0.44308 -0.0586,-0.88785 -0.0843,-1.32934 -0.0772,-1.32952 -0.14122,-2.64993 -0.19959,-3.96424 -0.017,-0.38269 -0.0358,-0.76673 -0.0513,-1.14807 -0.0527,-1.29563 -0.0949,-2.5807 -0.13183,-3.85987 -0.0121,-0.42194 -0.0261,-0.84519 -0.0367,-1.26525 -0.0325,-1.28766 -0.0577,-2.56693 -0.0769,-3.83606 -0.005,-0.34216 -0.0104,-0.68464 -0.0146,-1.02539 -0.0126,-0.99118 -0.0197,-1.96913 -0.0256,-2.94799 -0.01,-1.65447 -0.002,-3.261 0.004,-4.87794 0.006,-1.90429 0.007,-3.82849 0.0256,-5.67627 0.008,-0.77725 0.0182,-1.52584 0.0275,-2.29248 0.0466,-3.87225 0.091,-7.57929 0.12268,-11.15295 0.01,-1.09701 0.0239,-2.23537 0.0275,-3.30139 0.003,-0.95929 0.002,-1.90865 -0.002,-2.8418 -9.3e-4,-0.30456 2.2e-4,-0.61565 -0.002,-0.91735 -0.007,-1.02924 -0.0236,-2.03526 -0.0421,-3.03041 -0.006,-0.3145 -0.009,-0.63563 -0.0165,-0.94665 -0.0214,-0.93536 -0.0535,-1.84543 -0.0878,-2.74841 -0.0129,-0.34046 -0.0217,-0.68964 -0.0367,-1.02539 -0.0357,-0.80122 -0.0853,-1.57731 -0.13367,-2.35107 -0.0263,-0.42049 -0.0466,-0.85125 -0.0769,-1.26343 -0.0526,-0.71561 -0.12099,-1.40287 -0.18676,-2.0929 -0.0393,-0.41242 -0.071,-0.83837 -0.11535,-1.24145 -0.0755,-0.68561 -0.16897,-1.33969 -0.26002,-1.99768 -0.0528,-0.38154 -0.0973,-0.77786 -0.15563,-1.1499 -0.12728,-0.81117 -0.27646,-1.5861 -0.43214,-2.35108 -0.0367,-0.18044 -0.0641,-0.37517 -0.10254,-0.55298 -0.10041,-0.4651 -0.20636,-0.9227 -0.3186,-1.36963 -7.7e-4,-0.003 -9.4e-4,-0.007 -0.002,-0.009 -0.1142,-0.45426 -0.23549,-0.89974 -0.36255,-1.33484 0,0 0,-0.002 0,-0.002 -1.536383,-5.26029 -1.961436,-12.23327 -1.638795,-20.09216 0,0 0,-0.002 0,-0.002 0.107568,-2.61931 0.298096,-5.33711 0.558468,-8.12255 0,0 0,-0.002 0,-0.002 0.130182,-1.39245 0.27796,-2.80176 0.441291,-4.22424 0,0 0,-0.002 0,-0.002 0.163336,-1.42249 0.343346,-2.85809 0.536496,-4.30297 0,0 0,-0.002 0,-0.002 2.70536,-20.23694 8.16882,-42.29347 11.78467,-55.65856 2.06632,-7.63725 3.53027,-12.43653 3.53027,-12.43653 0,0 -0.004,0.004 -0.004,0.004 -0.007,0.007 -6.09651,6.67371 -13.87573,18.46985 -0.55598,0.84302 -1.12213,1.71076 -1.69373,2.60559 -2.286529,3.57972 -4.683763,7.56887 -7.09167,11.93298 -0.601922,1.09088 -1.203947,2.20459 -1.805419,3.34168 0,0 0,0.002 0,0.002 -0.601218,1.13665 -1.202371,2.29548 -1.799925,3.47717 0,0 0,0.002 0,0.002 -0.597562,1.18172 -1.192762,2.38518 -1.783453,3.61084 -1.182074,2.45279 -2.347377,4.9915 -3.482662,7.61352 -1.135087,2.62147 -2.240625,5.32624 -3.303225,8.10791 -0.531281,1.39084 -1.051706,2.80053 -1.560056,4.22974 -0.508359,1.4292 -1.004615,2.87681 -1.486818,4.34325 -0.482391,1.467 -0.949585,2.95182 -1.402585,4.45496 -0.45284,1.50258 -0.890775,3.02175 -1.311037,4.55933 0,0 0,0.002 0,0.002 -0.840338,3.07462 -1.612678,6.21838 -2.303466,9.42627 -1.522603,-11.07647 -6.220546,-17.73081 -10.704346,-33.48267 -0.815156,-2.86391 -1.623618,-6.02981 -2.404171,-9.57641 -0.39031,-1.77333 -0.774066,-3.64138 -1.148072,-5.61585 -0.747975,-3.94888 -1.457137,-8.31924 -2.109375,-13.19457 -0.326128,-2.43768 -0.603319,-4.86411 -0.8313,-7.27662 -0.227972,-2.41251 -0.407981,-4.81176 -0.538331,-7.20153 -0.130369,-2.38977 -0.212081,-4.76983 -0.245363,-7.13929 -0.03328,-2.36946 -0.01753,-4.72913 0.04575,-7.08068 0.126554,-4.70311 0.446194,-9.37255 0.95581,-14.01856 0.12735,-1.1609 0.266372,-2.32091 0.417478,-3.479 0,0 0,-0.002 0,-0.002 0.604706,-4.63418 1.399809,-9.24698 2.382206,-13.84827 0.736875,-3.4514 1.579556,-6.89755 2.526853,-10.33997 0.315628,-1.14691 0.6426,-2.29403 0.98145,-3.44055 0,0 0,-0.002 0,-0.002 1.694981,-5.73487 3.681646,-11.46604 5.952759,-17.21374 0,0 0,-0.002 0,-0.002 0.454059,-1.14913 0.920193,-2.29917 1.39709,-3.44971 0,0 0,-0.002 0,-0.002 0.476916,-1.15055 0.965166,-2.3011 1.464844,-3.45337 0,0 0,-0.002 0,-0.002 1.834441,-4.22812 3.827275,-8.46986 5.964906,-12.73007 0.193772,-0.38617 0.38235,-0.77071 0.578616,-1.15722 0,0 -0.0019,0 -0.0019,0 z M 185.11018,460.96028 c 2.88686,6.93753 5.82378,14.55331 8.29651,23.05298 0.0794,0.27305 0.16332,0.5399 0.2417,0.81482 0.25499,0.8935 0.49776,1.80571 0.74157,2.71911 0.14991,0.56206 0.29964,1.12583 0.44495,1.69556 0.21884,0.85734 0.43322,1.72318 0.64088,2.59827 0.15775,0.66528 0.30693,1.3421 0.45776,2.01782 2.0039,8.97287 3.38615,18.861 3.64196,29.90478 -0.0582,-0.11373 -0.11256,-0.22201 -0.17029,-0.33508 -9.85945,-19.31344 -12.0546,-29.10062 -13.10302,-45.61523 -0.15274,-2.41556 -0.2814,-4.97652 -0.40649,-7.73255 -0.0327,-0.72139 -0.0772,-1.44207 -0.12818,-2.16247 -0.022,-0.31212 -0.0503,-0.62369 -0.0751,-0.93567 -0.032,-0.40155 -0.0612,-0.80345 -0.097,-1.20483 -0.0705,-0.79221 -0.15724,-1.58478 -0.23803,-2.37671 -0.0833,-0.8133 -0.15992,-1.62722 -0.2472,-2.4408 z m 56.35437,0.004 c -0.006,0.0525 -0.0109,0.10496 -0.0165,0.15747 -0.0652,0.60846 -0.12174,1.21727 -0.18494,1.82555 -0.10201,0.98303 -0.20616,1.96645 -0.29297,2.94984 -0.0156,0.17572 -0.0291,0.35159 -0.044,0.52734 -0.0423,0.5022 -0.0836,1.00444 -0.11902,1.50696 -0.0255,0.36113 -0.0428,0.72262 -0.0641,1.08398 -0.0208,0.35536 -0.0479,0.71006 -0.0641,1.06568 -0.98525,21.70604 -2.21293,31.29591 -13.6798,53.68286 0.002,-0.0828 0.004,-0.16452 0.006,-0.2472 0.0784,-3.16895 0.24726,-6.2445 0.49806,-9.23035 0.011,-0.13101 0.0234,-0.26116 0.0348,-0.39184 0.25876,-2.98862 0.59717,-5.88832 1.00526,-8.703 0.014,-0.0964 0.028,-0.19312 0.0421,-0.28931 0.54851,-3.73244 1.22572,-7.30355 1.98853,-10.75012 0.18173,-0.82176 0.36466,-1.64172 0.55664,-2.44812 0.18478,-0.77551 0.37585,-1.54193 0.56946,-2.30347 0.17269,-0.67999 0.34996,-1.35239 0.52917,-2.02148 0.22475,-0.83819 0.44883,-1.67799 0.68299,-2.49939 0.10784,-0.37872 0.22172,-0.74722 0.33141,-1.12244 2.4344,-8.31738 5.30713,-15.78354 8.13904,-22.59887 0.0272,-0.0655 0.0552,-0.1287 0.0824,-0.19409 z m 44.1925,40.21728 c 0.68772,3.63202 1.30746,7.29957 1.86035,10.97351 0.0189,0.12575 0.038,0.25143 0.0567,0.3772 0.26738,1.79175 0.52019,3.58466 0.75623,5.37597 1.5e-4,9.3e-4 -1.6e-4,0.003 0,0.004 1.22774,9.3185 2.03359,18.58693 2.44995,27.34679 -4.01344,1.07727 -7.70439,2.38322 -11.08338,3.77747 -0.43736,0.18033 -0.8742,0.3589 -1.30005,0.542 -0.78956,0.33967 -1.55043,0.68082 -2.2998,1.02722 -0.38429,0.17755 -0.76548,0.35241 -1.13891,0.531 -0.75203,0.35974 -1.47537,0.7176 -2.18263,1.0785 -0.32252,0.16455 -0.63914,0.32653 -0.95214,0.49071 -0.72686,0.38127 -1.42387,0.75762 -2.0984,1.13343 -0.23215,0.12936 -0.45713,0.25618 -0.68297,0.38452 -0.71168,0.40433 -1.39219,0.79829 -2.0398,1.18835 -0.14338,0.0863 -0.27912,0.17084 -0.41931,0.25635 -0.7096,0.43266 -1.379,0.84941 -2.00501,1.25428 -0.007,0.005 -0.0153,0.008 -0.0219,0.0128 -0.004,-0.004 -0.006,-0.008 -0.009,-0.0128 -1.08059,-1.29609 -2.12256,-2.58623 -3.13476,-3.87269 -0.10596,-0.13519 -0.21528,-0.27144 -0.32044,-0.40649 -1.03494,-1.32377 -2.03671,-2.64209 -2.99195,-3.94775 1.45375,-7.85111 5.26528,-15.8714 10.06165,-23.63159 0.36806,-0.59528 0.73776,-1.18964 1.11694,-1.78162 0.38311,-0.59828 0.76949,-1.19627 1.16273,-1.79077 0.35766,-0.54057 0.7226,-1.07787 1.08764,-1.61499 0.40762,-0.59993 0.81122,-1.20105 1.22681,-1.79626 0.70707,-1.0125 1.42291,-2.01859 2.14782,-3.01575 0.40504,-0.55724 0.81593,-1.10516 1.22498,-1.65711 0.37169,-0.50146 0.74285,-1.00284 1.11694,-1.49963 1.30939,-1.73903 2.63024,-3.44896 3.94592,-5.12329 1.50632,-1.91671 3.00302,-3.78819 4.46594,-5.60303 z m -144.73388,0.007 c 0.46049,0.57127 0.93785,1.17957 1.40442,1.76148 0.99765,1.2442 1.99122,2.48103 3.00477,3.77014 1.35239,1.72024 2.71189,3.47752 4.05761,5.26611 0.25798,0.34286 0.514,0.68945 0.77088,1.03454 1.22314,1.64335 2.43469,3.3071 3.6145,4.99512 0.007,0.0104 0.0147,0.0207 0.0219,0.0311 0.41512,0.59421 0.81776,1.19552 1.22498,1.79443 0.38347,0.56394 0.76723,1.12781 1.14257,1.69556 0.38293,0.5793 0.7583,1.16211 1.1316,1.745 0.3866,0.60356 0.76389,1.2094 1.13891,1.8164 0.40349,0.6532 0.81266,1.30438 1.20118,1.96106 0.005,0.007 0.008,0.016 0.0128,0.0238 1.20114,2.0313 2.32819,4.07793 3.35449,6.13221 0.006,0.0114 0.0108,0.0233 0.0165,0.0348 2.28896,4.58687 4.07953,9.21136 5.11231,13.78784 0.0164,0.0727 0.0334,0.14522 0.0494,0.21789 0.10651,0.48312 0.20566,0.96646 0.29481,1.44836 -0.96025,1.31237 -1.9658,2.63553 -3.00659,3.96607 -0.0924,0.11868 -0.18892,0.23825 -0.28199,0.35705 -1.00487,1.27743 -2.04046,2.56183 -3.11279,3.84888 -0.0172,0.0206 -0.034,0.0416 -0.0513,0.0623 -0.65979,-0.42705 -1.3674,-0.86778 -2.12036,-1.32568 -0.09,-0.0547 -0.17782,-0.10784 -0.26916,-0.16297 -0.68906,-0.41578 -1.41507,-0.8369 -2.17713,-1.26892 -0.17869,-0.10133 -0.35571,-0.20199 -0.53833,-0.30396 -0.70254,-0.39219 -1.4303,-0.78466 -2.18994,-1.18286 -0.29804,-0.15623 -0.59971,-0.31035 -0.90637,-0.46691 -0.72426,-0.36983 -1.4663,-0.73736 -2.23755,-1.10596 -0.3445,-0.1646 -0.69548,-0.327 -1.04919,-0.49073 -0.78023,-0.3613 -1.57476,-0.71532 -2.39869,-1.06933 -0.39027,-0.16759 -0.79025,-0.33093 -1.19019,-0.49622 -3.39586,-1.40443 -7.10685,-2.72055 -11.14562,-3.80492 0.002,-0.0361 0.002,-0.0719 0.004,-0.10804 0.49892,-10.42298 1.55228,-21.56283 3.208,-32.6477 0.0154,-0.10315 0.0303,-0.20632 0.0457,-0.30945 0.55431,-3.6856 1.17418,-7.36289 1.86401,-11.00647 z m 150.17577,54.12963 c 0.0344,2.49865 0.0355,4.93348 0.002,7.2931 -1.9e-4,0.0127 1.8e-4,0.0259 0,0.0384 -0.0595,4.12288 -0.22828,7.99637 -0.4889,11.58692 -0.0922,1.26992 -0.19652,2.5051 -0.31311,3.6969 -0.0242,0.2476 -0.0443,0.5085 -0.0696,0.75256 -1.2e-4,9.4e-4 1.2e-4,0.003 0,0.004 -0.0981,0.94764 -0.2049,1.8688 -0.31861,2.76123 -1.21543,-0.94524 -2.39821,-1.89942 -3.56323,-2.85828 -0.4979,-0.41054 -0.98351,-0.82319 -1.47216,-1.23596 -0.63442,-0.53469 -1.26308,-1.07146 -1.88233,-1.60949 -0.60044,-0.52292 -1.19516,-1.04723 -1.78161,-1.57288 -0.41227,-0.36878 -0.8178,-0.7378 -1.22315,-1.10779 -0.72123,-0.6593 -1.44195,-1.31877 -2.14234,-1.9812 0.003,-0.003 0.005,-0.005 0.007,-0.007 0.50803,-0.55003 1.00031,-1.09983 1.49048,-1.64978 0.2189,-0.24537 0.43616,-0.49091 0.65185,-0.73608 0.48408,-0.55093 0.96626,-1.09855 1.43555,-1.64796 0.0369,-0.0431 0.0712,-0.085 0.10804,-0.12816 1.05774,-1.2408 2.08407,-2.47442 3.08532,-3.69874 0.14907,-0.1818 0.2968,-0.3607 0.44495,-0.54199 0.98449,-1.20798 1.93944,-2.37878 2.89673,-3.55774 1.04917,-1.28954 2.08738,-2.55765 3.13293,-3.79944 z m -155.61583,0.009 c 0.99355,1.18019 1.98311,2.38719 2.97912,3.61084 0.93117,1.14592 1.85887,2.28109 2.81434,3.4552 0.25635,0.31428 0.51175,0.62532 0.77087,0.94115 0.9836,1.20174 1.99006,2.41183 3.02857,3.62916 0.0363,0.0425 0.0717,0.0839 0.10802,0.12634 0.45466,0.5319 0.92124,1.06338 1.38978,1.59668 0.23709,0.26955 0.4768,0.53954 0.71777,0.80933 0.44927,0.50338 0.89992,1.00534 1.36414,1.50878 0.0257,0.0279 0.0493,0.0564 0.0751,0.0843 -0.73888,0.69879 -1.49749,1.39392 -2.25953,2.08923 -0.3334,0.3037 -0.66535,0.60715 -1.00341,0.91004 -0.63325,0.56855 -1.27671,1.13568 -1.92627,1.70105 -0.61496,0.53388 -1.23962,1.0661 -1.86951,1.59667 -0.46429,0.39205 -0.92445,0.78552 -1.39709,1.17554 -1.17807,0.97019 -2.37385,1.93498 -3.60352,2.89124 -0.11395,-0.89417 -0.22031,-1.81714 -0.31861,-2.76673 -0.0981,-0.94757 -0.18871,-1.92092 -0.27099,-2.92052 -2e-4,-0.003 2e-4,-0.005 0,-0.007 -0.0821,-0.99808 -0.15724,-2.02209 -0.22339,-3.06885 -2.6e-4,-0.004 2.6e-4,-0.008 0,-0.0129 -0.19846,-3.14397 -0.32447,-6.50072 -0.37536,-10.02686 -1.6e-4,-0.0108 1.5e-4,-0.0221 0,-0.033 -0.0167,-1.16624 -0.0255,-2.35228 -0.0257,-3.55408 0,-0.007 0,-0.0135 0,-0.0202 -4e-5,-1.20737 0.008,-2.43116 0.0257,-3.67127 1.9e-4,-0.0144 -2e-4,-0.0294 0,-0.044 z m 77.80334,19.76257 c 0.38653,1.90077 0.71481,3.82387 0.97229,5.76782 0.0192,0.14465 0.0383,0.28908 0.0568,0.43396 0.0759,0.59896 0.14518,1.19874 0.20691,1.80176 0.007,0.0707 0.013,0.14168 0.0202,0.2124 0.26817,2.69696 0.39177,5.43498 0.32959,8.21228 -0.53725,1.16273 -1.06139,2.34526 -1.57104,3.54492 -0.005,0.0117 -0.01,0.0231 -0.0146,0.0348 -0.51386,-1.21058 -1.04006,-2.40488 -1.58203,-3.57788 -0.0624,-2.78638 0.0606,-5.5324 0.3296,-8.23791 0.006,-0.0573 0.0106,-0.11485 0.0165,-0.17213 0.27638,-2.71459 0.70074,-5.38803 1.23596,-8.02001 z m 40.85083,17.19909 c 0.014,0.0165 0.0318,0.0384 0.0457,0.0549 2.90334,3.42765 6.18137,7.25555 9.91698,11.69129 0.38088,0.45252 0.748,0.88695 1.13892,1.35314 1.82393,2.17402 3.73804,4.47181 5.79163,6.9745 0,0 0,0.002 0,0.002 0.39266,0.47854 0.7789,0.97035 1.15906,1.474 0.0448,0.0592 0.089,0.11999 0.13366,0.17944 0.36474,0.48769 0.72395,0.9855 1.07849,1.49414 -1.76295,0.88289 -3.53827,1.82095 -5.31738,2.81067 -0.11073,0.0616 -0.22071,0.12479 -0.33142,0.18677 -0.8042,0.45037 -1.60658,0.9076 -2.40784,1.37878 -0.13152,0.0773 -0.26229,0.15653 -0.39367,0.23438 -0.79875,0.47355 -1.59421,0.95293 -2.38586,1.44653 -0.0971,0.0605 -0.19237,0.12415 -0.28932,0.18494 -2.59574,1.62869 -5.14283,3.35848 -7.57507,5.18921 -0.015,0.0113 -0.0326,0.0235 -0.0476,0.0348 -0.522,0.39341 -1.02902,0.79719 -1.53992,1.19934 -0.36885,0.29014 -0.74162,0.57698 -1.10413,0.87159 -0.45911,0.37335 -0.90324,0.75486 -1.35132,1.13524 -0.38399,0.32576 -0.76917,0.65064 -1.1444,0.98145 -0.4265,0.37626 -0.83993,0.7581 -1.25427,1.14075 -0.38877,0.35878 -0.77442,0.71785 -1.15174,1.08215 -0.37214,0.35952 -0.73466,0.7229 -1.09496,1.08765 -0.40301,0.40774 -0.79744,0.81815 -1.1847,1.2323 -0.443,0.47399 -0.88635,0.94791 -1.30738,1.43005 -0.0591,0.0676 -0.12084,0.13368 -0.17943,0.20142 -0.56984,0.65905 -1.11343,1.32772 -1.6388,2.00134 -0.0803,0.10294 -0.16248,0.20434 -0.2417,0.30762 -0.50414,0.65739 -0.98482,1.32166 -1.44288,1.99219 -0.139,0.20343 -0.27742,0.40694 -0.41198,0.61157 -0.10804,0.16432 -0.21532,0.3293 -0.32044,0.49438 -0.17569,0.27587 -0.34533,0.55335 -0.51269,0.8313 -0.0793,0.13176 -0.16063,0.26328 -0.23804,0.39551 -0.16921,0.289 -0.33084,0.57858 -0.49071,0.86975 -0.0788,0.14365 -0.1615,0.28613 -0.23804,0.4303 -0.22161,0.41732 -0.43555,0.83817 -0.63721,1.25976 -0.0859,-0.42394 -0.16098,-0.86732 -0.22706,-1.32385 -0.017,-0.11743 -0.0301,-0.24122 -0.0457,-0.36072 -0.0465,-0.35395 -0.0895,-0.71427 -0.12452,-1.08581 -0.0123,-0.13073 -0.0221,-0.26452 -0.0329,-0.39734 -0.0304,-0.37093 -0.0558,-0.7485 -0.0751,-1.13526 -0.008,-0.14268 -0.0128,-0.28553 -0.0183,-0.43029 -0.0164,-0.4249 -0.0259,-0.85983 -0.0292,-1.30188 -7.8e-4,-0.0994 -0.004,-0.19639 -0.004,-0.29664 -5.5e-4,-0.4743 0.008,-0.9598 0.0219,-1.45202 0.003,-0.10299 0.004,-0.20205 0.008,-0.30579 0.002,-0.0425 0.004,-0.0875 0.006,-0.13 0.0338,-0.90808 0.0984,-1.85017 0.18127,-2.81067 0.0137,-0.15922 0.0233,-0.31554 0.0384,-0.47607 0.0908,-0.96503 0.20847,-1.95462 0.34789,-2.96265 0.0246,-0.17792 0.0508,-0.35738 0.0769,-0.5365 0.15119,-1.03647 0.32172,-2.08865 0.52369,-3.1604 0.0171,-0.0909 0.0375,-0.18364 0.0549,-0.27465 0.20197,-1.05195 0.43053,-2.11793 0.68115,-3.1952 0.0292,-0.12536 0.0545,-0.24971 0.0843,-0.37537 0.26037,-1.09694 0.55001,-2.2056 0.86058,-3.31969 0.0546,-0.19575 0.11053,-0.39165 0.16663,-0.58778 0.32146,-1.12344 0.66226,-2.25266 1.03455,-3.38378 0.0348,-0.10556 0.0728,-0.2112 0.10803,-0.31677 0.3829,-1.14905 0.79152,-2.29848 1.22681,-3.44605 0.0238,-0.0628 0.0456,-0.12581 0.0696,-0.1886 0.13416,-0.35128 0.27474,-0.70228 0.41382,-1.05285 0.14709,-0.37087 0.29419,-0.74168 0.44677,-1.11146 0.1285,-0.31131 0.2613,-0.62165 0.39368,-0.932 0.15593,-0.36563 0.31474,-0.73094 0.47607,-1.09497 0.14755,-0.33285 0.29654,-0.66481 0.44861,-0.9961 0.15605,-0.34 0.31528,-0.67811 0.47608,-1.01623 0.17139,-0.36032 0.34322,-0.7206 0.52002,-1.07849 0.13235,-0.26798 0.26928,-0.5337 0.40466,-0.80018 0.68835,-1.35469 1.41601,-2.68701 2.18261,-3.99353 0.17685,-0.30141 0.35184,-0.60437 0.53284,-0.90271 0.2101,-0.34625 0.42699,-0.68723 0.6427,-1.02905 0.17938,-0.28428 0.35874,-0.56859 0.542,-0.8496 0.22198,-0.34037 0.44798,-0.67728 0.67566,-1.01258 0.18912,-0.27854 0.38007,-0.55462 0.57312,-0.82947 0.22423,-0.31921 0.44795,-0.63818 0.67748,-0.95214 0.21119,-0.2889 0.42887,-0.57088 0.64453,-0.85511 0.23111,-0.30455 0.45956,-0.61293 0.69581,-0.91187 0.42156,-0.53342 0.85111,-1.05852 1.28906,-1.57287 z m -81.69617,0.006 c 0.16698,0.19615 0.32796,0.39976 0.49256,0.59875 0.27105,0.3277 0.54474,0.65185 0.80932,0.98694 0.22606,0.28629 0.44334,0.58198 0.66468,0.87342 0.21924,0.28868 0.43907,0.57623 0.65369,0.86975 0.2427,0.33191 0.47916,0.6693 0.71594,1.00708 0.17002,0.24254 0.34023,0.48517 0.5072,0.73058 0.25046,0.36813 0.49799,0.73904 0.74158,1.11328 0.16713,0.2568 0.33231,0.51503 0.49622,0.77455 0.21898,0.34669 0.43681,0.69425 0.65001,1.04552 0.19395,0.31959 0.38213,0.64369 0.5713,0.9668 0.18483,0.31568 0.3727,0.62966 0.55297,0.94849 0.28343,0.50132 0.55916,1.00773 0.8313,1.51611 0.23021,0.43002 0.45353,0.86371 0.67567,1.29822 0.17132,0.33515 0.34433,0.66953 0.51086,1.00708 0.1739,0.35244 0.34221,0.70723 0.51086,1.06201 0.15298,0.32185 0.30543,0.64323 0.4541,0.96679 0.16362,0.35606 0.32317,0.71332 0.48157,1.07117 0.14929,0.33733 0.29664,0.67571 0.44128,1.01441 0.14135,0.33092 0.2824,0.66225 0.41931,0.99426 0.1485,0.36014 0.29252,0.72099 0.4358,1.08216 0.1392,0.35082 0.27953,0.70131 0.41381,1.05285 0.0254,0.0664 0.0481,0.13318 0.0732,0.19958 0.44828,1.18214 0.8689,2.36688 1.26159,3.55042 0.0187,0.0562 0.04,0.1122 0.0586,0.16846 0.38305,1.16217 0.73443,2.32314 1.06384,3.47717 0.0466,0.16316 0.0937,0.326 0.13917,0.48889 0.31681,1.13428 0.6086,2.26176 0.87341,3.3783 0.0266,0.11228 0.0508,0.22302 0.0769,0.33508 0.25539,1.09637 0.48713,2.18182 0.69214,3.25196 0.0149,0.0777 0.033,0.15684 0.0476,0.23437 0.20357,1.07977 0.37529,2.14025 0.52734,3.1842 0.0249,0.17122 0.0516,0.34258 0.0751,0.5127 0.14031,1.01357 0.25681,2.00903 0.3479,2.97912 0.0146,0.15623 0.025,0.30829 0.0384,0.46326 0.0831,0.96291 0.14737,1.90593 0.18127,2.81616 0.002,0.042 0.004,0.0864 0.006,0.12818 0.006,0.159 0.007,0.31151 0.011,0.46875 0.01,0.3926 0.0177,0.78161 0.0183,1.16271 3.9e-4,0.23814 -0.004,0.46969 -0.008,0.70313 -0.005,0.31514 -0.0108,0.62945 -0.0219,0.93567 -0.007,0.21069 -0.0185,0.41807 -0.0292,0.62438 -0.0155,0.29269 -0.0331,0.57887 -0.0549,0.86244 -0.0174,0.22673 -0.0353,0.45313 -0.0567,0.67383 -0.0269,0.27499 -0.0602,0.5422 -0.0934,0.80748 -0.024,0.19168 -0.0459,0.3867 -0.0732,0.57313 -0.0498,0.33959 -0.1077,0.66536 -0.16846,0.98694 -0.0181,0.096 -0.0322,0.19863 -0.0513,0.29297 -0.11551,-0.2415 -0.24229,-0.48133 -0.36439,-0.72144 -0.0876,-0.1721 -0.17098,-0.34498 -0.26183,-0.51636 -0.10093,-0.19041 -0.20997,-0.37811 -0.31495,-0.56762 -0.13188,-0.23808 -0.26103,-0.4775 -0.39916,-0.71411 -0.11309,-0.19374 -0.23255,-0.38588 -0.34974,-0.57862 -0.12833,-0.21106 -0.25686,-0.42184 -0.39001,-0.63171 -0.14657,-0.23103 -0.29817,-0.46075 -0.45044,-0.69031 -0.0925,-0.13944 -0.18558,-0.27859 -0.28015,-0.41748 -0.47011,-0.6905 -0.96418,-1.37419 -1.48316,-2.05078 -0.0774,-0.1009 -0.15593,-0.20155 -0.23437,-0.30212 -0.53357,-0.68426 -1.08867,-1.36142 -1.66809,-2.03064 -0.0336,-0.0388 -0.0688,-0.0766 -0.10254,-0.11536 -0.44795,-0.51443 -0.9205,-1.02011 -1.39343,-1.52527 -0.36744,-0.39232 -0.74088,-0.78164 -1.12244,-1.16821 -0.36878,-0.37379 -0.74122,-0.74499 -1.12243,-1.11328 -0.38978,-0.3764 -0.78822,-0.74827 -1.19019,-1.11877 -0.39215,-0.36165 -0.7835,-0.72256 -1.18653,-1.0785 -0.40089,-0.35387 -0.81224,-0.70109 -1.22314,-1.04919 -0.43359,-0.36753 -0.86348,-0.73584 -1.30738,-1.09681 -0.347,-0.28202 -0.70367,-0.55702 -1.05651,-0.83495 -2.98995,-2.35653 -6.17086,-4.56809 -9.43909,-6.60828 -0.003,-0.002 -0.005,-0.004 -0.007,-0.006 -0.80121,-0.50007 -1.60663,-0.98531 -2.41516,-1.46484 -0.14098,-0.0836 -0.28184,-0.16791 -0.42298,-0.25086 -0.79065,-0.46485 -1.58134,-0.91772 -2.37487,-1.3623 -0.12094,-0.0678 -0.24159,-0.13599 -0.36255,-0.20325 -1.77447,-0.98696 -3.54618,-1.92266 -5.30457,-2.80334 0.34645,-0.49706 0.69839,-0.98367 1.05469,-1.46118 0.0556,-0.0742 0.11076,-0.14972 0.16662,-0.22339 0.37822,-0.5011 0.76132,-0.99087 1.15174,-1.46667 2.05859,-2.50878 3.98027,-4.81239 5.8081,-6.99097 0.3821,-0.45557 0.7408,-0.88136 1.11329,-1.32385 3.75884,-4.4635 7.0512,-8.30916 9.96825,-11.75354 z m 102.74414,25.96618 c 3.74916,6.10465 6.79663,13.53933 9.0564,22.09533 0.002,0.008 0.004,0.0146 0.006,0.0219 0.29384,1.11346 0.56978,2.25117 0.83679,3.40211 0.0344,0.14831 0.0704,0.29418 0.10437,0.4431 0.24619,1.07968 0.47704,2.17891 0.69947,3.29041 0.0472,0.23652 0.0966,0.47069 0.14281,0.70862 0.2076,1.06807 0.4022,2.15383 0.58778,3.25013 0.0497,0.29357 0.10025,0.58699 0.14831,0.88256 0.17245,1.05967 0.33338,2.13408 0.48523,3.219 0.0507,0.36304 0.0999,0.72731 0.14832,1.09313 0.1371,1.03438 0.26611,2.07847 0.38452,3.13477 0.0496,0.44275 0.0947,0.89013 0.14099,1.33667 0.1063,1.02494 0.20607,2.05721 0.2948,3.10181 0.0397,0.46865 0.0737,0.94286 0.10986,1.4154 0.0798,1.03996 0.15734,2.08358 0.21973,3.14209 0.0304,0.5165 0.0525,1.04105 0.0787,1.56189 0.052,1.0317 0.10359,2.06435 0.13915,3.11279 0.0182,0.53781 0.0264,1.08567 0.0403,1.62781 0.0277,1.08423 0.0558,2.16719 0.0659,3.26843 0.003,0.32906 -0.002,0.66555 0,0.9961 0.0184,4.16757 -0.0903,8.45331 -0.32776,12.84667 -0.0185,0.34102 -0.0294,0.67577 -0.0494,1.01807 -0.065,1.11241 -0.15086,2.24153 -0.23254,3.36731 -0.0465,0.64073 -0.0853,1.27581 -0.13733,1.92078 -0.081,1.00581 -0.17855,2.02544 -0.27282,3.04138 -0.075,0.80718 -0.14547,1.61089 -0.22889,2.42431 -0.0976,0.95294 -0.2111,1.91527 -0.32043,2.87659 -0.0976,0.85774 -0.1915,1.71387 -0.29846,2.57812 -0.11798,0.95369 -0.24777,1.91514 -0.37721,2.87659 -0.12518,0.92951 -0.2522,1.85944 -0.38818,2.79602 -0.12933,0.89123 -0.26732,1.78867 -0.40649,2.68616 -0.15599,1.00563 -0.315,2.01344 -0.4834,3.02673 -0.15068,0.90693 -0.30805,1.81719 -0.46875,2.7301 -0.17316,0.98351 -0.35348,1.97056 -0.53833,2.96082 -0.17228,0.92314 -0.34666,1.84885 -0.52917,2.77771 -0.20803,1.05852 -0.42682,2.12214 -0.64819,3.18787 -0.18369,0.88441 -0.36737,1.76945 -0.56031,2.65869 -0.22736,1.04774 -0.4665,2.10066 -0.70679,3.15491 -0.21422,0.93999 -0.42728,1.87846 -0.65185,2.82348 -0.2467,1.03809 -0.50614,2.08349 -0.76539,3.12745 -0.23738,0.95597 -0.47161,1.91034 -0.71959,2.87109 -0.27451,1.06346 -0.56573,2.13341 -0.85328,3.20251 -0.25384,0.94376 -0.49948,1.88463 -0.76354,2.83265 -0.38174,1.37037 -0.78511,2.7483 -1.18836,4.12719 -0.18221,0.62308 -0.35353,1.24292 -0.54016,1.86768 -0.46591,1.5596 -0.95841,3.12887 -1.45203,4.69848 -0.15863,0.50444 -0.30541,1.00519 -0.46692,1.51062 -1.21829,3.81238 -2.40087,7.48555 -3.56506,11.02478 -0.0127,0.0384 -0.0277,0.0806 -0.0403,0.11902 -0.30205,0.91779 -0.59913,1.80463 -0.89905,2.70447 -0.29101,0.87311 -0.58384,1.75836 -0.87342,2.61474 -0.36107,1.0678 -0.72049,2.10552 -1.08032,3.14758 -0.20291,0.58767 -0.40695,1.1874 -0.60974,1.76697 -0.39475,1.1282 -0.78933,2.22373 -1.18469,3.32154 -0.1912,0.53091 -0.38153,1.07279 -0.57312,1.59667 -0.30766,0.84126 -0.6173,1.65598 -0.92651,2.47925 -0.30096,0.80134 -0.60332,1.6087 -0.90638,2.39319 -0.28979,0.75011 -0.58297,1.47888 -0.87524,2.21375 -0.28578,0.71859 -0.5701,1.44182 -0.85877,2.14599 -0.32985,0.80464 -0.66542,1.58703 -0.99975,2.37305 -0.28485,0.66971 -0.56834,1.34317 -0.85694,1.99951 -0.32448,0.73795 -0.65524,1.45772 -0.9851,2.17896 -0.29359,0.64194 -0.58605,1.28642 -0.8844,1.91528 -0.34629,0.72989 -0.70131,1.44087 -1.05469,2.15332 -0.30369,0.6123 -0.60608,1.22598 -0.91552,1.82556 -0.34102,0.66074 -0.68964,1.30645 -1.03821,1.9519 -0.33342,0.6174 -0.66802,1.23298 -1.00891,1.83656 -0.35501,0.62854 -0.7166,1.24477 -1.08033,1.85852 -0.3497,0.59009 -0.70185,1.17758 -1.06018,1.75414 -0.57688,0.92823 -1.15673,1.85106 -1.75781,2.74475 -0.0484,0.072 -0.0979,0.14249 -0.14649,0.21424 -0.32613,0.48177 -0.65498,0.96003 -0.98877,1.43188 -0.0521,0.0737 -0.10699,0.14448 -0.1593,0.2179 -0.71762,1.00745 -1.45086,1.99625 -2.20641,2.95898 -0.0422,0.0537 -0.0859,0.10571 -0.12818,0.1593 -1.14088,1.44576 -2.32767,2.84196 -3.56507,4.18946 -0.0395,0.0429 -0.0776,0.0872 -0.11718,0.13 -0.008,-0.0182 -0.0159,-0.0368 -0.0238,-0.0549 -0.51605,-1.17184 -0.99415,-2.33921 -1.47033,-3.50464 -0.29278,-0.71495 -0.57643,-1.42805 -0.8551,-2.1405 -0.35816,-0.91864 -0.71042,-1.83614 -1.04553,-2.75024 -0.18215,-0.49483 -0.35721,-0.98789 -0.53284,-1.48133 -0.40725,-1.14902 -0.80587,-2.2958 -1.1792,-3.43689 -0.064,-0.19506 -0.12553,-0.38929 -0.1886,-0.5841 -0.4424,-1.3711 -0.86822,-2.73746 -1.26526,-4.09607 0.005,-0.12766 0.0134,-0.26009 0.0183,-0.38819 0.19389,-5.10026 0.65318,-10.56669 1.10778,-16.40625 0.18478,-2.37109 0.36105,-4.77033 0.52368,-7.27295 0.0469,-0.72143 0.0907,-1.43896 0.13367,-2.17162 0.0402,-0.68414 0.0793,-1.37139 0.11536,-2.06544 0.0404,-0.77903 0.0756,-1.56307 0.10987,-2.35473 0.0332,-0.76516 0.0633,-1.53553 0.0897,-2.31263 0.0276,-0.81259 0.0504,-1.62963 0.0696,-2.45544 0.0178,-0.76336 0.0287,-1.53419 0.0384,-2.30896 0.0106,-0.84535 0.0184,-1.6934 0.0183,-2.55248 -5e-5,-0.79402 -0.01,-1.5983 -0.0202,-2.40419 -0.0106,-0.84547 -0.0232,-1.69014 -0.0457,-2.54882 -0.0238,-0.90769 -0.0623,-1.82946 -0.10071,-2.75207 -0.0326,-0.78312 -0.0641,-1.56258 -0.10803,-2.35657 -0.0521,-0.9427 -0.12311,-1.90193 -0.19226,-2.86011 -0.068,-0.94134 -0.12682,-1.87618 -0.21241,-2.83264 -0.0179,-0.20031 -0.0381,-0.40145 -0.0567,-0.60242 -0.14402,-1.54581 -0.31114,-3.1091 -0.50536,-4.69482 -0.056,-0.45732 -0.11536,-0.91628 -0.17579,-1.37695 -0.0576,-0.43845 -0.11414,-0.87686 -0.17578,-1.31836 -0.0641,-0.4596 -0.13452,-0.92319 -0.20325,-1.38612 -0.0713,-0.48026 -0.14153,-0.959 -0.21789,-1.44286 -0.0882,-0.55888 -0.18323,-1.12271 -0.27833,-1.68641 -0.0625,-0.37068 -0.12116,-0.73866 -0.18676,-1.11144 -0.11044,-0.62764 -0.23041,-1.26153 -0.34973,-1.89515 -0.0693,-0.36807 -0.13453,-0.73401 -0.20692,-1.10412 -0.18628,-0.95256 -0.38238,-1.91234 -0.58959,-2.87841 -0.002,-0.008 -0.004,-0.0172 -0.006,-0.0256 -0.2182,-1.01648 -0.44613,-2.03909 -0.68849,-3.07068 -0.0453,-0.19288 -0.0833,-0.3806 -0.12817,-0.57312 -0.47529,-2.04709 -0.92405,-4.07272 -1.34399,-6.07909 -0.005,-0.0215 -0.008,-0.0426 -0.0128,-0.0641 1.02273,-3.76863 2.1984,-7.76545 3.35632,-11.94214 0.16597,-0.59839 0.33158,-1.19121 0.49621,-1.79809 0.19144,-0.70599 0.37767,-1.41752 0.5658,-2.13502 0.25581,-0.97502 0.50456,-1.96077 0.75073,-2.95715 0.19844,-0.80366 0.398,-1.60121 0.58777,-2.41882 0.0293,-0.12618 0.057,-0.25252 0.0861,-0.37903 0.59045,-2.57122 1.12895,-5.21147 1.58752,-7.92114 0.0446,-0.26318 0.0889,-0.52653 0.13184,-0.79102 0.23354,-1.43794 0.44709,-2.89012 0.62805,-4.36706 0.0991,-0.80782 0.18808,-1.62131 0.26917,-2.4408 0.0233,-0.23661 0.0442,-0.47469 0.0659,-0.71228 0.0632,-0.68741 0.11919,-1.37899 0.16846,-2.07458 0.0214,-0.30249 0.0436,-0.60416 0.0623,-0.9082 0.0564,-0.91971 0.1038,-1.8438 0.13366,-2.77771 0.0273,-0.85273 0.0759,-1.69838 0.141,-2.53784 0.0196,-0.2533 0.0503,-0.50228 0.0732,-0.7544 0.0534,-0.587 0.10831,-1.17338 0.17944,-1.75415 0.0352,-0.28736 0.0815,-0.57106 0.12085,-0.85694 0.0739,-0.53566 0.14784,-1.07161 0.23621,-1.60217 0.0555,-0.3331 0.12024,-0.66312 0.18127,-0.99426 0.0864,-0.46886 0.17366,-0.93758 0.271,-1.40259 0.0732,-0.34999 0.15331,-0.69766 0.23254,-1.04553 0.10563,-0.46356 0.21357,-0.92623 0.32959,-1.38611 0.0795,-0.31527 0.16293,-0.62941 0.24719,-0.94299 0.12976,-0.48266 0.26395,-0.96409 0.40467,-1.44287 0.0897,-0.30543 0.18243,-0.60981 0.27649,-0.9137 0.15233,-0.49196 0.30905,-0.98228 0.47241,-1.47033 0.0906,-0.27103 0.18251,-0.54132 0.27648,-0.81117 0.17687,-0.50765 0.35931,-1.01247 0.54749,-1.5161 0.10072,-0.26967 0.20193,-0.53894 0.30579,-0.8075 0.21058,-0.54427 0.42883,-1.08614 0.65185,-1.62598 0.0766,-0.18537 0.15091,-0.37177 0.22888,-0.55664 0.26258,-0.62228 0.53494,-1.24176 0.81299,-1.85852 0.0592,-0.13157 0.11581,-0.26418 0.17579,-0.3955 1.09305,-2.39269 2.29935,-4.74386 3.58887,-7.06604 0.48302,-0.8702 0.98699,-1.7325 1.4923,-2.59461 0.58458,-0.99697 1.18237,-1.9897 1.7926,-2.97729 0.24523,-0.39701 0.48905,-0.79452 0.73792,-1.19019 0.69795,-1.10926 1.40729,-2.21401 2.12952,-3.31421 0.18586,-0.28323 0.36943,-0.56689 0.55664,-0.84961 5.51526,-8.32636 11.57833,-16.44407 16.82006,-24.82361 z m -123.79211,0.008 c 0.13167,0.21048 0.27197,0.4179 0.40466,0.62805 5.15831,8.16871 11.05799,16.10178 16.44104,24.23217 0.1664,0.2514 0.32906,0.50443 0.49439,0.75622 0.71989,1.09604 1.42814,2.19642 2.12402,3.3014 0.28253,0.44875 0.55896,0.89901 0.8368,1.34949 0.58506,0.94832 1.15799,1.90128 1.71935,2.85827 0.51474,0.87778 1.02816,1.75605 1.51978,2.64222 0.8753,1.57718 1.71439,3.16705 2.50305,4.77539 0.0727,0.14839 0.14231,0.29808 0.21423,0.44677 0.28224,0.58325 0.56034,1.16806 0.82947,1.75598 0.0972,0.21232 0.19027,0.4261 0.28565,0.63904 0.2416,0.53922 0.47886,1.08071 0.70862,1.62415 0.0957,0.22651 0.18837,0.45387 0.28198,0.68115 0.21797,0.52906 0.4312,1.0597 0.63721,1.59301 0.0922,0.23865 0.18132,0.47825 0.27099,0.71778 0.19225,0.51335 0.37981,1.0279 0.5603,1.54541 0.10308,0.29564 0.20302,0.59285 0.30213,0.88989 0.1514,0.45361 0.29758,0.909 0.43945,1.36597 0.10248,0.3302 0.20293,0.66042 0.30029,0.99243 0.13457,0.4587 0.26186,0.9202 0.38636,1.38245 0.0877,0.32578 0.1756,0.65201 0.25817,0.97961 0.12074,0.47877 0.23296,0.96012 0.34242,1.44287 0.0704,0.31073 0.14126,0.62141 0.2069,0.93384 0.10612,0.50497 0.20154,1.01394 0.2948,1.52344 0.0562,0.30704 0.11523,0.61229 0.16663,0.92102 0.0862,0.51787 0.1601,1.04099 0.23254,1.56372 0.0415,0.29977 0.0894,0.59764 0.12635,0.89905 0.07,0.57225 0.12289,1.15021 0.17578,1.72851 0.0238,0.26046 0.0566,0.51833 0.0769,0.78003 0.0649,0.83828 0.11193,1.68268 0.13916,2.53418 0.0306,0.95567 0.0789,1.90101 0.13733,2.8418 0.0167,0.26917 0.038,0.53588 0.0567,0.80383 0.0485,0.68813 0.10273,1.37248 0.16479,2.05261 0.0239,0.26205 0.0474,0.52467 0.0732,0.78552 0.096,0.96959 0.20306,1.93068 0.32409,2.88392 0.16547,1.30484 0.35758,2.58928 0.56397,3.86352 0.0472,0.29081 0.0956,0.58053 0.14465,0.86975 0.44968,2.65325 0.97615,5.23958 1.55274,7.76001 0.0493,0.21542 0.0983,0.43007 0.14831,0.64454 0.175,0.75118 0.35969,1.48351 0.542,2.22289 0.25674,1.04066 0.51645,2.06977 0.78368,3.08716 0.16921,0.64456 0.33531,1.28552 0.50721,1.92078 0.21323,0.78761 0.42735,1.55941 0.6427,2.33276 1.12317,4.03532 2.25714,7.90359 3.24829,11.55578 -0.003,0.0155 -0.008,0.0303 -0.011,0.0457 -0.46057,2.20076 -0.94511,4.41747 -1.474,6.6687 -0.15948,0.67884 -0.30516,1.34922 -0.4541,2.02149 -0.0702,0.3168 -0.14634,0.6368 -0.21423,0.95215 -0.0976,0.45346 -0.18535,0.90085 -0.27832,1.35131 -0.1143,0.55384 -0.23135,1.10959 -0.33875,1.65894 -0.0877,0.44903 -0.16573,0.89245 -0.24902,1.3385 -0.0966,0.51714 -0.19685,1.03593 -0.28748,1.54907 -0.0845,0.47819 -0.16042,0.95166 -0.23986,1.4264 -0.0834,0.49857 -0.16919,0.99751 -0.24719,1.4923 -0.0721,0.45732 -0.13748,0.91003 -0.20509,1.36414 -0.0729,0.49003 -0.14824,0.98037 -0.21606,1.46667 -0.0643,0.46087 -0.12331,0.91759 -0.18311,1.37513 -0.0537,0.41122 -0.10727,0.82191 -0.15746,1.23047 -0.19729,1.60521 -0.36504,3.18906 -0.51087,4.75341 -0.0193,0.20771 -0.0401,0.41557 -0.0586,0.62257 -0.0873,0.97586 -0.14896,1.92927 -0.21789,2.8894 -0.0655,0.91338 -0.13487,1.82897 -0.18493,2.72826 -0.0479,0.86023 -0.0807,1.70504 -0.11536,2.5525 -0.0358,0.87439 -0.0726,1.74829 -0.0952,2.60925 -0.0228,0.86218 -0.0352,1.71095 -0.0457,2.55981 -0.0101,0.80713 -0.0201,1.61263 -0.0202,2.40784 -8e-5,0.86045 0.008,1.70949 0.0183,2.55615 0.01,0.76106 0.0211,1.51863 0.0384,2.26869 0.0206,0.89201 0.0465,1.7729 0.0769,2.64953 0.0226,0.65127 0.0459,1.29804 0.0732,1.94091 0.0392,0.92242 0.0824,1.83576 0.13,2.7411 0.0327,0.6227 0.0665,1.23829 0.10254,1.85302 0.0415,0.7091 0.083,1.40713 0.12817,2.10571 0.16515,2.55216 0.34818,4.99839 0.53651,7.41395 0.33759,4.33334 0.67313,8.465 0.90637,12.38524 0.013,0.21896 0.0298,0.4433 0.0421,0.66101 0.0711,1.25622 0.12901,2.49572 0.17212,3.71156 -0.004,0.0128 -0.007,0.0256 -0.011,0.0384 -0.3843,1.31381 -0.79634,2.63516 -1.22314,3.96058 -0.0794,0.24588 -0.15523,0.49163 -0.23621,0.73791 -0.36219,1.10524 -0.74854,2.2162 -1.14258,3.32886 -0.18841,0.52999 -0.37717,1.0596 -0.57312,1.59119 -0.32363,0.88129 -0.66388,1.76585 -1.00891,2.65136 -0.27955,0.71533 -0.56315,1.4318 -0.85693,2.14966 -0.48564,1.18916 -0.97622,2.37833 -1.5033,3.57422 -0.002,0.004 -0.002,0.008 -0.004,0.011 -0.10114,-0.10962 -0.19801,-0.22301 -0.29846,-0.33326 -0.77664,-0.85242 -1.53653,-1.7198 -2.27417,-2.61107 -8.5e-4,-9.4e-4 -9.4e-4,-0.003 -0.002,-0.004 -1.57766,-1.90645 -3.0668,-3.90611 -4.48792,-5.99671 -0.0894,-0.13164 -0.18023,-0.26128 -0.26917,-0.39368 -0.58913,-0.87708 -1.15896,-1.78318 -1.72485,-2.69347 -0.36468,-0.58665 -0.72272,-1.18462 -1.07849,-1.78528 -0.35858,-0.6054 -0.71556,-1.21308 -1.06567,-1.83289 -0.33952,-0.60107 -0.67315,-1.21445 -1.00524,-1.82922 -0.3504,-0.64865 -0.70096,-1.29698 -1.04371,-1.96107 -0.32167,-0.62323 -0.63668,-1.25997 -0.95215,-1.89696 -0.33475,-0.67592 -0.66954,-1.35188 -0.99792,-2.04346 -0.31792,-0.66957 -0.63047,-1.35536 -0.94299,-2.03979 -0.3151,-0.69001 -0.63099,-1.37664 -0.94117,-2.08192 -0.2958,-0.67258 -0.58704,-1.36233 -0.87891,-2.04894 -0.32877,-0.77345 -0.65881,-1.54314 -0.98327,-2.3346 -0.26892,-0.65601 -0.53376,-1.33099 -0.80017,-1.99951 -0.32127,-0.80619 -0.64487,-1.60707 -0.96314,-2.43164 -0.29457,-0.76318 -0.58631,-1.54817 -0.87891,-2.32727 -0.29877,-0.79555 -0.59805,-1.58269 -0.89537,-2.39502 -0.26428,-0.72206 -0.52745,-1.46731 -0.79103,-2.20276 -0.32161,-0.89739 -0.64369,-1.78694 -0.96496,-2.70446 -0.34217,-0.97722 -0.68452,-1.98064 -1.02723,-2.98096 -0.2188,-0.63869 -0.43801,-1.26343 -0.65734,-1.91163 -0.32208,-0.95189 -0.64659,-1.93693 -0.97046,-2.90954 -1.44926,-4.35215 -2.9185,-8.88764 -4.4458,-13.667 -0.65429,-2.04744 -1.2824,-4.08688 -1.88965,-6.11755 -0.24665,-0.82483 -0.47515,-1.6427 -0.7141,-2.46459 -0.35351,-1.21587 -0.71062,-2.43277 -1.04737,-3.64198 -0.24967,-0.89653 -0.48276,-1.78609 -0.72327,-2.67883 -0.30293,-1.12436 -0.60872,-2.24918 -0.89722,-3.36731 -0.23333,-0.90439 -0.4517,-1.80247 -0.67565,-2.70263 -0.27568,-1.10801 -0.55328,-2.21647 -0.81482,-3.31787 -0.22005,-0.92676 -0.42895,-1.84847 -0.63904,-2.77039 -0.23357,-1.02478 -0.46529,-2.04838 -0.68664,-3.06701 -0.2079,-0.9568 -0.40708,-1.90891 -0.60426,-2.86012 -0.21324,-1.02859 -0.42174,-2.05612 -0.62256,-3.078 -0.18135,-0.92305 -0.35608,-1.842 -0.52734,-2.7594 -0.18123,-0.97062 -0.35734,-1.93809 -0.52734,-2.90221 -0.17143,-0.97243 -0.33981,-1.94209 -0.49988,-2.90772 -0.15456,-0.93214 -0.30089,-1.85938 -0.44495,-2.78504 -0.1496,-0.96171 -0.29745,-1.92205 -0.43578,-2.87658 -0.13399,-0.92413 -0.25738,-1.84217 -0.38086,-2.7594 -0.12722,-0.94545 -0.25558,-1.89105 -0.37171,-2.82898 -0.10499,-0.84754 -0.1988,-1.68742 -0.2948,-2.52869 -0.11497,-1.00815 -0.23112,-2.01865 -0.33325,-3.01757 -0.0784,-0.76627 -0.14516,-1.52261 -0.21607,-2.28333 -0.0964,-1.03484 -0.19575,-2.07196 -0.27831,-3.09631 -0.0566,-0.70223 -0.0999,-1.39387 -0.15015,-2.09107 -0.0771,-1.07067 -0.15963,-2.14578 -0.22156,-3.20434 -0.026,-0.4433 -0.0408,-0.87722 -0.0641,-1.31836 -0.31514,-5.96602 -0.3924,-11.73359 -0.23803,-17.27417 0.01,-0.3572 0.0157,-0.71952 0.0275,-1.07483 0.0402,-1.20626 0.0973,-2.39562 0.15931,-3.57971 0.0188,-0.36139 0.034,-0.72652 0.0549,-1.08582 0.0662,-1.1362 0.1463,-2.2561 0.23254,-3.37097 0.0321,-0.41588 0.0622,-0.83408 0.097,-1.24695 0.0964,-1.13927 0.20682,-2.26607 0.3241,-3.38195 0.0335,-0.31838 0.0656,-0.63754 0.10071,-0.95399 0.12458,-1.12154 0.26086,-2.2283 0.40649,-3.32519 0.0473,-0.35654 0.0952,-0.71177 0.14466,-1.06567 0.14962,-1.06874 0.30829,-2.12715 0.4779,-3.17138 0.0522,-0.32203 0.10699,-0.64166 0.16114,-0.96131 0.18327,-1.08099 0.37575,-2.15081 0.58044,-3.20434 0.0465,-0.23973 0.0952,-0.47583 0.14282,-0.71412 0.2219,-1.10903 0.45207,-2.20756 0.69763,-3.28491 0.035,-0.1533 0.0727,-0.30328 0.10804,-0.45594 2.32024,-10.00022 5.65532,-18.60775 9.89318,-25.51024 z m 125.39245,305.86826 h 0.44861 v 1.21216 c -0.14558,-0.40824 -0.30051,-0.80643 -0.44861,-1.21216 z m -127.4414,91.41541 c 0.0166,0.023 0.0347,0.045 0.0513,0.067 0.2736,0.3781 0.55027,0.754 0.83497,1.1242 0.2835,0.3728 0.57582,0.7384 0.87157,1.1023 0.0988,0.1209 0.19112,0.2463 0.29114,0.3662 0.005,0.01 0.008,0.011 0.0128,0.017 h -2.06177 z"
       id="path2577041"
       inkscape:label="outline" />
    <path
       style="opacity:0.2;fill:#ffffff;stroke:none;stroke-width:1.06666672px;stroke-linecap:butt;stroke-linejoin:miter;stroke-opacity:1"
       d="M 83.310547,1.4121094 C 62.687718,13.806137 50.593591,28.312984 48.835938,51.970703 42.85535,33.258968 23.316304,8.1860681 1.171875,5.7011719 63.764734,88.628731 38.374092,127.28974 50.875,226.29688 c 3.23776,25.64331 47.633582,183.37056 47.728516,206.38671 0,0 -30.019494,-44.01212 -59.476563,-47.00781 15.808748,10.99791 38.625597,65.2 49.144531,89.24414 12.739856,29.12064 16.251426,85.02981 13.132816,100.41992 -7.308494,-15.2839 -38.575883,-37.88987 -55.238284,-45.46093 14.343788,25.13844 47.637649,72.50987 50.308593,122.74023 2.670934,50.23036 24.802751,91.37493 28.638671,130.73633 3.83593,39.36139 -41.608354,182.57032 34.97266,207.16211 1.44911,0.46531 3.67106,0.9085 6.28125,1.34375 7.25025,2.02447 15.34098,3.30746 23.99609,4.58203 v -20.35742 c 1.60342,0.25099 3.18035,0.40824 4.67383,0.43164 l 63.12305,0.99023 c 2.65465,0.0416 5.25495,-0.12945 7.78711,-0.47461 v 19.41016 c 10e-4,-1.9e-4 0.003,1.9e-4 0.004,0 8.65584,-1.27467 16.74733,-2.55727 23.99805,-4.58203 2.60857,-0.43506 4.8289,-0.87865 6.27734,-1.34375 76.58101,-24.59179 31.13869,-167.80072 34.97461,-207.16211 3.83593,-39.3614 25.96774,-80.50597 28.63867,-130.73633 2.67094,-50.23036 35.96481,-97.60179 50.3086,-122.74023 -16.6624,7.57106 -47.9298,30.17703 -55.23828,45.46093 -3.11862,-15.39011 0.39297,-71.29928 13.13281,-100.41992 10.51893,-24.04414 33.33578,-78.24623 49.14453,-89.24414 -29.45707,2.99569 -59.47656,47.00781 -59.47656,47.00781 0.0949,-23.01615 44.49075,-180.7434 47.72851,-206.38671 C 417.94036,127.28974 392.54777,88.628731 455.14062,5.7011719 432.9962,8.1860681 413.4591,33.258968 407.47852,51.970703 405.72086,28.312984 393.62673,13.806137 373.00391,1.4121094 393.1558,41.099174 401.02485,79.102173 395.45898,120.70508 c -5.56576,41.6029 -15.09468,48.81078 -17.45703,65.99609 -11.79168,-54.75796 -45.76367,-91.927733 -45.76367,-91.927732 0,0 24.96758,81.906442 16.22656,111.833982 -8.4113,28.79841 10.24394,97.33558 -24.72656,158.17188 1.39197,-14.76543 1.7651,-30.37424 17.96875,-55.96485 -8.69334,8.3242 -15.97151,14.4229 -22.55078,20.46485 -3.21652,-35.64726 -14.71289,-54.55914 -29.52539,-72.2461 6.44808,43.70072 -13.19097,70.32193 2.22461,106.78907 -2.60971,4.73766 -5.27841,10.07588 -8.06445,16.22851 -2.65324,-50.7091 -22.15878,-63.29423 -30.51172,-83.85156 -1.55261,13.42912 0.0839,29.02142 4.3125,44.125 1.56625,5.59443 1.75468,11.06535 1.45508,16.48633 -9.34355,7.58814 -23.02506,22.64292 -29.03711,36.98633 -0.65066,1.55232 -1.24699,2.91772 -1.85743,4.33398 -0.61034,-1.41605 -1.20491,-2.78191 -1.85546,-4.33398 -6.01206,-14.34341 -19.69552,-29.39819 -29.03907,-36.98633 -0.2996,-5.42097 -0.11117,-10.89192 1.45508,-16.48633 4.22856,-15.10358 5.86511,-30.69588 4.3125,-44.125 -8.35294,20.55733 -27.85653,33.14246 -30.50977,83.85156 -2.7844,-6.14901 -5.45035,-11.4851 -8.05859,-16.2207 15.42133,-36.4709 -4.22195,-63.09323 2.22656,-106.79688 -14.81334,17.68796 -26.31158,36.60078 -29.52734,72.25196 -6.58086,-6.04378 -13.86061,-12.14393 -22.55664,-20.47071 16.19725,25.5805 16.57619,41.187 17.9668,55.94727 -34.956898,-60.83196 -16.3063,-129.35865 -24.7168,-158.1543 -8.741006,-29.92754 16.22461,-111.833982 16.22461,-111.833982 0,-10e-7 -33.970039,37.169772 -45.76172,91.927732 C 75.950153,169.51586 66.419276,162.30798 60.853516,120.70508 55.287648,79.102173 63.158652,41.099174 83.310547,1.4121094 Z M 258.20898,366.15039 c -0.34797,3.24358 -0.69033,6.48361 -0.83789,9.73438 -1.05104,23.1552 -2.36129,33.38354 -14.5957,57.26757 0.65533,-28.33355 8.20536,-49.63215 15.43359,-67.00195 z m -60.11132,0.006 c 7.22734,17.36835 14.77411,38.66471 15.42968,66.99414 -12.23318,-23.88218 -13.54275,-34.11125 -14.59375,-57.26562 -0.14747,-3.24884 -0.48818,-6.48687 -0.83593,-9.72852 z m 107.25,42.89844 c 2.97791,15.72592 4.75418,32.06742 5.46484,47.01953 -12.30244,3.302 -21.9616,8.56508 -27.97266,12.45508 -2.46542,-2.95656 -4.77145,-5.89779 -6.88672,-8.78907 3.24211,-17.50946 17.41826,-35.82843 29.39454,-50.68554 z m -154.38282,0.01 c 11.97651,14.85772 26.15207,33.17541 29.39063,50.6836 -2.11468,2.89015 -4.4202,5.82982 -6.88477,8.78515 -6.00933,-3.88954 -15.66784,-9.15379 -27.9707,-12.45703 0.71043,-14.94974 2.48786,-31.28783 5.46484,-47.01172 z m 160.1875,57.73828 c 0.1469,10.66089 -0.29461,20.24424 -1.26757,27.87891 -4.6342,-3.60385 -8.90552,-7.31173 -12.86915,-11.06055 5.31584,-5.75453 9.6757,-11.52004 14.13672,-16.81836 z m -165.99023,0.008 c 4.45954,5.2972 8.81622,11.06169 14.13086,16.81445 -3.96227,3.74725 -8.23098,7.45426 -12.86328,11.05664 -0.97273,-7.63282 -1.41416,-17.2133 -1.26758,-27.87109 z m 82.99023,21.07812 c 1.15193,5.66351 1.82617,11.50757 1.69141,17.52735 -0.57899,1.25302 -1.14248,2.52708 -1.69141,3.82031 -0.54854,-1.29234 -1.10892,-2.56617 -1.6875,-3.81836 -0.13495,-6.02048 0.53545,-11.86516 1.6875,-17.5293 z m 43.57422,18.34961 c 4.89889,5.78462 10.7268,12.5265 18.01953,21.41406 0.87205,1.06275 1.71359,2.18622 2.53125,3.35938 -15.4067,7.71539 -32.08385,19.35547 -38.65234,33.0918 -2.6262,-12.96006 3.42742,-40.63196 18.10156,-57.86524 z m -87.14258,0.006 c 14.67029,17.23372 20.72159,44.90089 18.09571,57.85938 -6.56763,-13.73452 -23.23953,-25.37444 -38.64453,-33.08985 0.81805,-1.17381 1.66071,-2.29999 2.5332,-3.36328 7.29041,-8.88472 13.11768,-15.62284 18.01562,-21.40625 z m 109.59375,27.69727 c 18.28165,29.76742 20.90352,89.19562 -0.73242,156.90039 -10.39612,32.5323 -18.34653,55.56523 -33.43554,71.91601 -2.87529,-6.52152 -5.15657,-12.95397 -6.99805,-19.25586 0.75627,-21.32299 6.10122,-48.38579 -2.23633,-83.875 -0.56803,-2.41785 -1.08776,-4.79872 -1.58203,-7.16211 3.56899,-13.15151 8.90911,-28.60712 9.48242,-46.5332 0.89237,-27.90236 21.12749,-49.01024 35.50195,-71.99023 z m -132.04492,0.008 c 14.37415,22.9768 34.60578,44.0834 35.49805,71.98242 0.57331,17.92608 5.91343,33.38169 9.48242,46.5332 -0.49428,2.36341 -1.01595,4.74424 -1.58398,7.16211 -8.33807,35.49139 -2.99013,62.55531 -2.23438,83.87891 -1.84079,6.29899 -4.12248,12.72767 -6.99609,19.24609 -15.08538,-16.35041 -23.03486,-39.38189 -33.42969,-71.91015 -21.63416,-67.69919 -19.01388,-127.12272 -0.73633,-156.89258 z m 133.75196,326.25976 h 0.47851 v 1.29493 c -0.15549,-0.43604 -0.32032,-0.86158 -0.47851,-1.29493 z m -135.9375,97.50977 c 0.70254,0.97449 1.4292,1.93232 2.20117,2.85742 h -2.20117 z"
       transform="matrix(0.93749991,0,0,0.93749991,-0.60590383,117.6891)"
       id="path2576938"
       inkscape:connector-curvature="0" />
    <path
       inkscape:connector-curvature="0"
       id="path5532"
       d="m 236.84407,395.3754 c -1.45557,12.5898 0.0787,27.2075 4.04297,41.3671 3.19946,11.428 0.29337,22.3139 -0.20703,33.3379 -1.00079,22.04818 -2.22828,31.56589 -14.20703,54.72269 -2.51678,-11.86147 -7.18518,-19.46238 -14.92578,-37.92969 -6.64107,-15.8441 -23.28802,-32.6523 -31.47071,-37.793 7.81387,18.4243 18.91531,41.70372 19.52344,75.50589 0.36192,20.11723 18.45842,44.66012 14.81641,73.23828 -14.85502,-37.47832 -44.39843,-57.88281 -44.39843,-57.88281 0,0 0.3467,9.81477 8.91405,25.09375 7.15673,12.76328 9.37541,27.8693 10.29492,33.41797 5.36066,32.34816 17.51117,75.23741 2.85157,137.63671 -14.78871,62.94888 16.35519,97.63364 -22.63671,121.0586 -51.66055,31.03582 -61.77174,145.00671 -38.32031,174.64061 8.56535,10.8235 26.42899,17.0743 46.73436,20.0645 v -33.625 h -28.51561 v -12.0938 h 28.51561 v -69.9062 h -28.51561 v -12.0938 h 28.51561 v -28.49022 h 70.86719 v 28.49022 h 28.51172 v 12.0938 h -28.51172 v 69.9062 h 28.51172 v 12.0938 h -28.51172 v 32.6386 c 9.24297,-1.648 16.77027,-3.8338 21.33594,-6.3554 60.01874,-33.1485 44.82899,-126.6717 9.15039,-161.08792 -53.09616,-51.21747 -49.52591,-106.45425 -49.20508,-137.05078 0.16042,-15.29826 11.09038,-35.35705 11.89844,-60.62305 0.90168,-28.19339 22.87888,-48.98544 36.32617,-72.55273 -15.621,7.09787 -34.20881,19.00923 -41.06055,33.33789 -2.92371,-14.42823 5.62416,-48.30804 25.55859,-62.15039 20.20957,-14.0334 26.6265,-31.29884 41.44727,-41.60938 -27.61599,2.80846 -46.08594,18.83594 -46.08594,18.83594 -4.26832,-20.12254 13.73006,-43.29241 28.03516,-61.01758 29.17112,-36.1453 4.95708,-48.1212 33.62109,-93.3906 -24.03845,23.0177 -36.68091,27.8805 -54.29687,66.78318 -2.48741,-47.53978 -20.77264,-59.33878 -28.60352,-78.61128 z"
       style="opacity:0.2;fill:#ffffff;stroke:none;stroke-width:1px;stroke-linecap:butt;stroke-linejoin:miter;stroke-opacity:1" />
    <path
       style="opacity:0.2;fill:#ffffff;stroke:none;stroke-width:1px;stroke-linecap:butt;stroke-linejoin:miter;stroke-opacity:1"
       d="m 189.7308,395.3754 c 1.45557,12.5898 -0.0787,27.2075 -4.04297,41.3671 -3.19946,11.428 -0.29337,22.3139 0.20703,33.3379 1.00079,22.04818 2.22828,31.56589 14.20703,54.72269 2.51678,-11.86147 7.18518,-19.46238 14.92578,-37.92969 6.64107,-15.8441 23.28802,-32.6523 31.47071,-37.793 -7.81387,18.4243 -18.91531,41.70372 -19.52344,75.50589 -0.36192,20.11723 -18.45842,44.66012 -14.81641,73.23828 14.85502,-37.47832 44.39844,-57.88281 44.39844,-57.88281 0,0 -0.3467,9.81477 -8.91406,25.09375 -7.15673,12.76328 -9.37541,27.8693 -10.29492,33.41797 -5.36066,32.34816 -17.51117,75.23741 -2.85157,137.63671 14.78871,62.94888 -16.35519,97.63364 22.63672,121.0586 51.66055,31.03582 61.77174,145.00671 38.32031,174.64061 -8.56535,10.8235 -26.42899,17.0743 -46.73437,20.0645 v -33.625 h 28.51562 v -12.0938 h -28.51562 v -69.9062 h 28.51562 v -12.0938 h -28.51562 v -28.49022 h -70.86719 v 28.49022 h -28.51172 v 12.0938 h 28.51172 v 69.9062 h -28.51172 v 12.0938 h 28.51172 v 32.6386 c -9.24297,-1.648 -16.77027,-3.8338 -21.33594,-6.3554 -60.018732,-33.1485 -44.82899,-126.6717 -9.15039,-161.08792 53.09616,-51.21747 49.52591,-106.45425 49.20508,-137.05078 -0.16042,-15.29826 -11.09038,-35.35705 -11.89844,-60.62305 -0.90168,-28.19339 -22.87888,-48.98544 -36.32617,-72.55273 15.621,7.09787 34.20881,19.00923 41.06055,33.33789 2.92371,-14.42823 -5.62416,-48.30804 -25.55859,-62.15039 -20.20957,-14.0334 -26.6265,-31.29884 -41.44727,-41.60938 27.61599,2.80846 46.08594,18.83594 46.08594,18.83594 4.26832,-20.12254 -13.73006,-43.29241 -28.03516,-61.01758 -29.17112,-36.1453 -4.95708,-48.1212 -33.62109,-93.3906 24.03845,23.0177 36.68091,27.8805 54.29687,66.78318 2.48741,-47.53978 20.77264,-59.33878 28.60352,-78.61128 z"
       id="path4255"
       inkscape:connector-curvature="0" />
    <path
       style="opacity:0.2;fill:#ffffff;stroke:none;stroke-width:1px;stroke-linecap:butt;stroke-linejoin:miter;stroke-opacity:1"
       d="m 220.76681,757.86812 c 6.0115,58.71443 -5.1817,96.38123 31.01,108.81661 55.1258,18.94106 67.5558,134.44417 43.6766,165.10467 -8.4811,10.8896 -26.4289,17.0743 -46.7343,20.0645 v -33.625 h 28.51559 v -12.0938 h -28.51559 v -69.9062 h 28.51559 v -12.0938 h -28.51559 v -28.49023 h -70.86716 v 28.49023 h -28.5117 v 12.0938 h 28.5117 v 69.9062 h -28.5117 v 12.0938 h 28.5117 v 32.6386 c -9.243,-1.6481 -16.7703,-3.8338 -21.336,-6.3554 -60.018692,-33.1485 -43.1446,-124.4668 -5.8027,-157.07073 56.31476,-49.16929 46.4636,-74.64146 52.6816,-112.43222 6.26136,-38.05433 6.25446,-64.18077 6.25446,-64.18077 0,0 8.537,21.8349 11.1175,47.03974 z"
       id="path4271"
       inkscape:connector-curvature="0"
       sodipodi:nodetypes="sssccccccccccccccccccccssscs" />
    <path
       sodipodi:nodetypes="zsccccccccccccccccccccszcz"
       inkscape:connector-curvature="0"
       id="path4277"
       d="m 258.4762,875.38874 c 38.1368,14.32181 60.86032,125.74016 36.9812,156.40066 -8.4811,10.8896 -26.429,17.0743 -46.7344,20.0645 v -33.625 h 28.5156 v -12.0938 H 248.723 v -69.9062 h 28.5156 V 924.1351 H 248.723 V 895.64488 H 177.8559 V 924.1351 H 149.344 v 12.0938 h 28.5119 v 69.9062 H 149.344 v 12.0938 h 28.5119 v 32.6386 c -9.243,-1.648 -16.7703,-3.8338 -21.336,-6.3554 -60.018802,-33.1485 -33.6063,-133.2108 0.8927,-159.07931 34.4989,-25.8685 37.8842,-38.4396 50.347,-75.91332 7.0294,14.58704 12.5798,51.54746 50.7166,65.86927 z"
       style="opacity:0.2;fill:#ffffff;stroke:none;stroke-width:1px;stroke-linecap:butt;stroke-linejoin:miter;stroke-opacity:1" />
    <path
       style="display:inline;opacity:0.2;fill:#ffffff;stroke:none;stroke-width:1px;stroke-linecap:butt;stroke-linejoin:miter;stroke-opacity:1"
       d="m 310.86836,206.53938 c 0,0 23.4065,76.78777 15.2118,104.84484 -8.19478,28.05707 11.0236,96.34889 -27.26518,154.95967 3.72851,-61.23594 -9.29742,-85.4838 -27.89139,-107.68604 6.13158,41.55567 -12.92494,66.63071 2.70062,101.58125 15.62556,34.95054 19.92935,92.63503 16.28734,121.21319 -43.35326,-33.71432 -54.33542,-76.82598 -54.33542,-76.82598 0,0 -6.32778,50.17714 2.23958,65.45612 7.15673,12.76328 15.89319,21.17005 33.21494,42.27983 20.79947,25.34802 25.29637,84.68773 3.46898,152.99159 -20.16406,63.09887 -30.50951,88.08256 -110.62346,98.32516 -57.40743,7.33956 -53.36663,136.95499 -32.75085,168.11049 9.34471,14.1221 26.42899,17.0742 46.73437,20.0644 v -33.625 h -28.51562 v -12.0937 h 28.51562 v -69.9063 h -28.51562 v -12.0937 h 28.51562 v -28.49033 h 70.86719 v 28.49033 h 28.51172 v 12.0937 h -28.51172 v 69.9063 h 28.51172 v 12.0937 h -28.51172 v 32.6387 c 9.24297,-1.6481 23.41448,-2.9734 28.38049,-4.568 71.79469,-23.0548 29.19166,-157.31273 32.78784,-194.21403 3.59618,-36.90131 24.34495,-75.47498 26.84895,-122.56594 2.504,-47.09096 33.7165,-91.5021 47.1638,-115.06939 -15.621,7.09787 -44.9345,28.29167 -51.7862,42.62033 -2.9237,-14.42823 0.3681,-66.84303 12.3117,-94.14363 9.8615,-22.54138 31.2528,-73.35587 46.0735,-83.66641 -27.616,2.80846 -55.759,44.07016 -55.759,44.07016 0.089,-21.57764 41.7105,-169.44747 44.7459,-193.48808 11.7196,-92.81918 -12.0854,-129.06446 46.5954,-206.80904 -20.7604,2.32959 -39.0771,25.83551 -44.6839,43.37776 -1.6478,-22.17911 -12.9864,-35.77816 -32.3203,-47.39756 18.8924,37.20662 26.2705,72.8343 21.0525,111.83702 -5.2179,39.00272 -14.1516,45.75891 -16.3663,61.87014 -11.0547,-51.33558 -42.9029,-86.18155 -42.9029,-86.18155 z"
       id="path4369"
       inkscape:connector-curvature="0"
       sodipodi:nodetypes="czcczccsssssccccccccccccccccccccszzccsccsccczcc" />
    <path
       sodipodi:nodetypes="czcczccsssssccccccccccccccccccccszzccsccsccczcc"
       inkscape:connector-curvature="0"
       id="path2576881"
       d="m 115.71431,206.53928 c 0,0 -23.406492,76.78777 -15.2118,104.84484 8.19478,28.05707 -11.023602,96.34889 27.26518,154.95967 -3.72851,-61.23594 9.29742,-85.4838 27.89139,-107.68604 -6.13158,41.55567 12.92494,66.63071 -2.70062,101.58125 -15.62556,34.95054 -19.92935,92.63503 -16.28734,121.21319 43.35326,-33.71432 54.33542,-76.82598 54.33542,-76.82598 0,0 6.32778,50.17714 -2.23958,65.45612 -7.15673,12.76328 -15.89319,21.17005 -33.21494,42.27983 -20.79947,25.34802 -25.29637,84.68773 -3.46898,152.99159 20.16406,63.09887 30.50951,88.08256 110.62346,98.32516 57.40743,7.33956 53.36663,136.95499 32.75085,168.11049 -9.34471,14.1221 -26.42899,17.0742 -46.73437,20.0644 v -33.625 h 28.51562 v -12.0937 h -28.51562 v -69.9063 h 28.51562 v -12.0937 h -28.51562 v -28.49033 h -70.86719 v 28.49033 h -28.51172 v 12.0937 h 28.51172 v 69.9063 h -28.51172 v 12.0937 h 28.51172 v 32.6387 c -9.24297,-1.6481 -23.41448,-2.9734 -28.38049,-4.568 -71.794692,-23.0548 -29.19166,-157.31273 -32.78784,-194.21403 -3.59618,-36.90131 -24.344942,-75.47498 -26.848942,-122.56594 -2.50401,-47.09096 -33.71651,-91.5021 -47.16381,-115.06939 15.621,7.09787 44.9345,28.29167 51.78621,42.62033 2.9237,-14.42823 -0.3681,-66.84303 -12.31171,-94.14363 -9.8615,-22.54138 -31.2528,-73.35587 -46.0735,-83.66641 27.616,2.80846 55.75901,44.07016 55.75901,44.07016 -0.089,-21.57764 -41.71051,-169.44747 -44.74591,-193.48808 -11.7196,-92.81918 12.0854,-129.06446 -46.59539984,-206.80904 20.76039984,2.32959 39.07709984,25.83551 44.68389984,43.37776 1.6478,-22.17911 12.9864,-35.77816 32.3203,-47.39756 -18.8924,37.20662 -26.2705,72.8343 -21.0525,111.83702 5.2179,39.00272 14.1516,45.75891 16.3663,61.87014 11.0547,-51.33558 42.902902,-86.18155 42.902902,-86.18155 z"
       style="opacity:0.2;fill:#ffffff;stroke:none;stroke-width:1px;stroke-linecap:butt;stroke-linejoin:miter;stroke-opacity:1" />
    <path
       style="opacity:1;fill:#666666;stroke:none;stroke-width:0.88611913px;stroke-linecap:butt;stroke-linejoin:miter;stroke-opacity:1"
       d="m 245.1758,879.70002 c 31.84618,13.46695 55.20955,106.70517 35.26927,135.53508 -7.08216,10.2396 -21.8884,19.1355 -39.02561,18.8668 l -59.17765,-0.9275 c -7.83932,-0.1228 -18.09547,-4.0491 -21.79412,-6.639 -44.51509,-31.16961 -13.1902,-123.30589 12.03637,-139.03791 41.07164,-25.61347 38.39231,-21.52165 72.69174,-7.79747 z"
       id="path2576865"
       inkscape:connector-curvature="0"
       sodipodi:nodetypes="csssssc" />
  </g>
</svg>
